# File produced by Open Asset Import Library (http://www.assimp.sf.net)
# (assimp v5.3.0)

mtllib adapter.mtl

# 178 vertex positions
v 6 10.3922997 0
v 3.70819998 11.4126997 20
v 6 10.3922997 20
v 3.70819998 11.4126997 0
v 10.9624996 4.88083982 20
v 11.5 3.22672009 10
v 10.9624996 4.88083982 0
v 11.7377996 2.49494004 20
v 11.7377996 2.49494004 10
v 11.5 3.22672009 0
v 12 0 20
v 12 0 10
v 9.70820045 7.05342007 0
v 9.70820045 7.05342007 20
v 11.7377996 -2.49494004 20
v 11.4969997 -3.23588991 11.3262005
v 11.7377996 -2.49494004 10.9775
v 11.1360998 -4.34660006 11.6459999
v 10.9624996 -4.88083982 20
v 10.9624996 -4.88083982 11.7370996
v 11.4969997 -3.23588991 8.67374992
v 11.5 -3.22672009 0
v 11.5 -3.22672009 8.67807007
v 11.1360998 -4.34660006 8.35402966
v 10.9624996 -4.88083982 8.26292992
v 10.9624996 -4.88083982 0
v 3.65418005 -1.62695003 0
v 4 0 0
v 9.70820045 -7.05342007 0
v 3.91259003 0.831646025 0
v 3.23606992 -2.35114002 0
v 8.02956963 -8.91773987 0
v 3.65418005 1.62695003 0
v 2.67651987 -2.97257996 0
v 6 -10.3922997 0
v 3.91259003 -0.831646025 0
v 2 -3.46409988 0
v 3.70819998 -11.4126997 0
v 1.23607004 -3.80422997 0
v 1.25433993 -11.9343004 0
v 0.418114007 -3.97809005 0
v -0.418114007 -3.97809005 0
v -1.25433993 -11.9343004 0
v -1.23607004 -3.80422997 0
v -3.70819998 -11.4126997 0
v -2 -3.46409988 0
v -6 -10.3922997 0
v -2.67651987 -2.97257996 0
v -8.02956963 -8.91773987 0
v -3.23606992 -2.35114002 0
v -9.70820045 -7.05342007 0
v -3.65418005 -1.62695003 0
v 3.23606992 2.35114002 0
v 8.02956963 8.91773987 0
v 2.67651987 2.97257996 0
v 2 3.46409988 0
v 1.23607004 3.80422997 0
v 1.25433993 11.9343004 0
v 0.418114007 3.97809005 0
v -0.418114007 3.97809005 0
v -1.25433993 11.9343004 0
v -1.23607004 3.80422997 0
v -3.70819998 11.4126997 0
v -2 3.46409988 0
v -6 10.3922997 0
v -2.67651987 2.97257996 0
v -8.02956963 8.91773987 0
v -3.23606992 2.35114002 0
v -9.70820045 7.05342007 0
v -3.65418005 1.62695003 0
v -10.9624996 4.88083982 0
v -3.91259003 0.831646025 0
v -11.7377996 2.49494004 0
v -4 0 0
v -10.9624996 -4.88083982 0
v -3.91259003 -0.831646025 0
v -11.7377996 -2.49494004 0
v -12 0 0
v 3.70819998 -11.4126997 20
v 1.25433993 -11.9343004 20
v 8.02956963 8.91773987 20
v 9.70820045 -7.05342007 8.02707958
v 9.2907896 -7.51700974 8.1299696
v 8.86386967 -7.9911499 8.35402966
v 8.50298023 -8.39196014 8.67374992
v 8.22908974 -8.69614983 9.07054996
v 8.05811977 -8.8860302 9.52136993
v 8.02956963 -8.91773987 9.75648975
v 8.02956963 -8.91773987 20
v 9.70820045 -7.05342007 11.9729004
v 9.70820045 -7.05342007 20
v 9.2907896 -7.51700974 11.8699999
v 8.86386967 -7.9911499 11.6459999
v 8.50298023 -8.39196014 11.3262005
v 8.22908974 -8.69614983 10.9294004
v 8.05811977 -8.8860302 10.4785995
v 8.02956963 -8.91773987 10.2434998
v -11.7377996 -2.49494004 20
v -10.9624996 -4.88083982 20
v 10.7091999 -5.31963015 11.8699999
v 10.2411003 -6.1304698 11.9854002
v 9.75893021 -6.96556997 11.9854002
v 10.7091999 -5.31963015 8.1299696
v 10.2411003 -6.1304698 8.01457977
v 9.75893021 -6.96556997 8.01457977
v -6 10.3922997 20
v -3.70819998 11.4126997 20
v -8.02956963 8.91773987 20
v -9.70820045 7.05342007 20
v -10.9624996 4.88083982 20
v 6 -10.3922997 20
v 8 -8.93922043 10
v 1.25433993 11.9343004 20
v -12 0 20
v 11.9419003 -0.552945018 10.4785995
v 11.7708998 -2.17963004 10.9294004
v -9.70820045 -7.05342007 20
v 4 0 20
v 3.91259003 0.831646025 20
v 3.65418005 1.62695003 20
v 3.91259003 -0.831646025 20
v 3.23606992 2.35114002 20
v 2.67651987 2.97257996 20
v 3.65418005 -1.62695003 20
v 2 3.46409988 20
v 1.23607004 3.80422997 20
v 0.418114007 3.97809005 20
v -0.418114007 3.97809005 20
v -1.25433993 11.9343004 20
v -1.23607004 3.80422997 20
v -2 3.46409988 20
v -2.67651987 2.97257996 20
v -3.23606992 2.35114002 20
v -3.65418005 1.62695003 20
v 3.23606992 -2.35114002 20
v 2.67651987 -2.97257996 20
v 2 -3.46409988 20
v 1.23607004 -3.80422997 20
v 0.418114007 -3.97809005 20
v -0.418114007 -3.97809005 20
v -1.25433993 -11.9343004 20
v -1.23607004 -3.80422997 20
v -3.70819998 -11.4126997 20
v -2 -3.46409988 20
v -6 -10.3922997 20
v -2.67651987 -2.97257996 20
v -8.02956963 -8.91773987 20
v -3.23606992 -2.35114002 20
v -3.65418005 -1.62695003 20
v -3.91259003 -0.831646025 20
v -4 0 20
v -3.91259003 0.831646025 20
v -11.7377996 2.49494004 20
v 8.22908974 0 9.07054996
v 8.50298023 0 8.67374992
v 11.7708998 0 10.9294004
v 11.9419003 0 10.4785995
v 8.05811977 0 10.4785995
v 8.22908974 0 10.9294004
v 10.7091999 0 8.1299696
v 11.1360998 0 8.35402966
v 9.75893021 0 11.9854002
v 10.2411003 0 11.9854002
v 11.4969997 0 8.67374992
v 9.75893021 0 8.01457977
v 10.2411003 0 8.01457977
v 8.86386967 0 11.6459999
v 9.2907896 0 11.8699999
v 8.86386967 0 8.35402966
v 9.2907896 0 8.1299696
v 10.7091999 0 11.8699999
v 11.1360998 0 11.6459999
v 8.50298023 0 11.3262005
v 8.05811977 0 9.52136993
v 8 0 10
v 11.4969997 0 11.3262005
v 11.5 0 8.67807007
v 11.5 0 10

# 0 UV coordinates

# 124 vertex normals
vn 0.406744987 0.913541973 0
vn 0.95104897 0.30904001 0
vn 0.951048017 0.309044003 -7.16942964e-07
vn 0.951044977 0.309053004 0
vn 0.994522989 0.104516998 0
vn 0.866032004 0.49998799 0
vn 0.95103699 -0.309076011 0
vn 0.951053977 -0.30902499 -4.82829e-06
vn 0.951048017 -0.309044003 -1.92387006e-07
vn 0.95104897 -0.309040993 0
vn 0.950430989 -0.310936987 0
vn 0.951053977 -0.309024006 2.23795018e-06
vn 0.95104897 -0.309040993 -2.56663981e-07
vn 0.95104897 -0.30904001 0
vn 0 0 -1
vn 0.207918003 -0.978146017 0
vn 0.743147016 0.669128001 0
vn 0.743151009 -0.669122994 -1.95051007e-06
vn 0.743143022 -0.669131994 8.55848043e-07
vn 0.743146002 -0.669130027 2.61422031e-07
vn 0.743148983 -0.669125021 -1.83680001e-07
vn 0.743143022 -0.669133008 1.56889996e-07
vn 0.743147016 -0.669128001 0
vn 0.743166029 -0.66910702 0
vn 0.743151009 -0.669122994 1.95050006e-06
vn 0.743143022 -0.669131994 -8.55862993e-07
vn 0.743146002 -0.669130027 -2.61418023e-07
vn 0.743148983 -0.669125021 1.83679006e-07
vn 0.743143022 -0.669133008 -1.56889996e-07
vn -0.951048017 -0.309044003 0
vn 0.866056025 -0.499947011 0
vn 0.866042972 -0.499969006 1.54192992e-06
vn 0.866032004 -0.49998799 5.55543011e-06
vn 0.866014004 -0.500019014 7.74859018e-07
vn 0.865984023 -0.500072002 0
vn 0.866042972 -0.499969006 -1.54193992e-06
vn 0.866014004 -0.500019014 -7.74861007e-07
vn 0.866032004 -0.49998799 -5.55545012e-06
vn -0.406744987 0.913541973 0
vn -0.587782979 0.809019029 0
vn -0.743147016 0.669128001 0
vn -0.866032004 0.49998799 0
vn 0.587782979 -0.809019029 0
vn 0.587758005 -0.80903703 -7.83051019e-06
vn 0.587783992 -0.809018016 0
vn 0.587758005 -0.80903703 7.8303101e-06
vn 0.207918003 0.978146017 0
vn -0.994522989 -0.104516998 0
vn 0.994525015 -0.104497999 0
vn 0.994520009 -0.104544997 2.7297599e-06
vn 0.994522989 -0.104516998 -4.03283002e-06
vn 0.994535029 -0.104401998 0
vn -0.866032004 -0.49998799 0
vn 0 0 1
vn -0.587782979 -0.809019029 0
vn 0 1 0
vn -0.951048017 0.309044003 0
vn 0.406744987 -0.913541973 0
vn 0.587782979 0.809019029 0
vn -0.994522989 0.104516998 0
vn -0.207918003 0.978146017 0
vn -0.743147016 -0.669128001 0
vn 0 -1 0
vn -0.207918003 -0.978146017 0
vn -0.406744987 -0.913541973 0
vn 0.743143022 0.669133008 0
vn -0.951056004 -0.309017003 0
vn -0.994521976 -0.104529001 0
vn -0.866025984 -0.499998987 0
vn -0.587785006 0.809017003 0
vn 0.40674299 0.913542986 0
vn -0.994521976 0.104529001 0
vn -0.743143022 -0.669133008 0
vn 0.207909003 0.978147984 0
vn 0.207909003 -0.978147984 0
vn 0.743143022 -0.669133008 0
vn -0.951056004 0.309017003 0
vn -0.40674299 0.913542986 0
vn 0.587785006 0.809017003 0
vn 0.951056004 -0.309017003 0
vn 0.587785006 -0.809017003 0
vn 0.951056004 0.309017003 0
vn 0.40674299 -0.913542986 0
vn -0.207909003 0.978147984 0
vn 0.994521976 0.104529001 0
vn 0.994521976 -0.104529001 0
vn 0.866025984 0.499998987 0
vn 0.866025984 -0.499998987 0
vn -0.866025984 0.499998987 0
vn -0.587785006 -0.809017003 0
vn -0.40674299 -0.913542986 0
vn -0.207909003 -0.978147984 0
vn -0.743143022 0.669133008 0
vn 0.822984993 0 0.568063021
vn -0.934993029 0 -0.354667008
vn -0.992712021 -0 -0.120511003
vn 0.935012996 0 -0.354611993
vn -0.464731991 0 0.885451019
vn -0.464899004 9.31929972e-05 0.885363996
vn -0.663111985 0 0.74852097
vn 0.464617997 0 -0.885510981
vn 0.464715004 0 0.885460019
vn -0.464522988 -6.27314002e-05 -0.885560989
vn -0.464635015 0 -0.885501981
vn 0.663121998 0 0.748511016
vn -0.239362001 -0 -0.97092998
vn 0.663214982 0 -0.748429
vn 0.935019016 0 0.354598999
vn 0.992708027 0 0.120544001
vn 0.992708027 1.35806999e-07 0.120541997
vn 0.992708027 0 0.120546997
vn -0.239342004 0 0.970934987
vn -0.82297498 0 -0.568077028
vn -0.822417021 -0.000448345992 -0.568885028
vn -0.663205028 -0 -0.748438001
vn 0.239323005 0 0.970939994
vn 0.239485994 -0.000146517996 0.970899999
vn 0.992707014 0 -0.120552003
vn 0.992707014 -8.49159942e-09 -0.120552003
vn -0.821370006 0 0.570396006
vn 0.822984993 0 -0.568063021
vn 0.239546999 -0.000183967 -0.970884979
vn 0.239343002 0 -0.970934987
vn 1 0 0

# Mesh 'OpenSCAD_Model' with 356 faces
g OpenSCAD_Model
usemtl DefaultMaterial
f  1//1 2//1 3//1
f  2//1 1//1 4//1
f  5//2 6//2 7//2
f  8//3 6//3 5//3
f  6//4 8//4 9//4
f  7//2 6//2 10//2
f  11//5 9//5 8//5
f  9//5 11//5 12//5
f  5//6 13//6 14//6
f  13//6 5//6 7//6
f  15//7 16//7 17//7
f  15//8 18//8 16//8
f  19//9 18//9 15//9
f  18//10 19//10 20//10
f  21//11 22//11 23//11
f  24//12 22//12 21//12
f  25//13 22//13 24//13
f  22//14 25//14 26//14
f  27//15 22//15 26//15
f  22//15 28//15 10//15
f  27//15 26//15 29//15
f  30//15 10//15 28//15
f  31//15 29//15 32//15
f  33//15 10//15 30//15
f  34//15 32//15 35//15
f  10//15 33//15 7//15
f  7//15 33//15 13//15
f  22//15 36//15 28//15
f  37//15 35//15 38//15
f  22//15 27//15 36//15
f  29//15 31//15 27//15
f  32//15 34//15 31//15
f  35//15 37//15 34//15
f  39//15 38//15 40//15
f  38//15 39//15 37//15
f  40//15 41//15 39//15
f  40//15 42//15 41//15
f  43//15 42//15 40//15
f  42//15 43//15 44//15
f  45//15 44//15 43//15
f  44//15 45//15 46//15
f  47//15 46//15 45//15
f  46//15 47//15 48//15
f  49//15 48//15 47//15
f  48//15 49//15 50//15
f  51//15 50//15 49//15
f  50//15 51//15 52//15
f  53//15 13//15 33//15
f  13//15 53//15 54//15
f  55//15 54//15 53//15
f  54//15 55//15 1//15
f  56//15 1//15 55//15
f  1//15 56//15 4//15
f  57//15 4//15 56//15
f  4//15 57//15 58//15
f  59//15 58//15 57//15
f  60//15 58//15 59//15
f  61//15 60//15 62//15
f  60//15 61//15 58//15
f  63//15 62//15 64//15
f  65//15 64//15 66//15
f  67//15 66//15 68//15
f  69//15 68//15 70//15
f  62//15 63//15 61//15
f  71//15 70//15 72//15
f  73//15 72//15 74//15
f  75//15 52//15 51//15
f  64//15 65//15 63//15
f  52//15 75//15 76//15
f  66//15 67//15 65//15
f  77//15 76//15 75//15
f  68//15 69//15 67//15
f  76//15 77//15 74//15
f  70//15 71//15 69//15
f  78//15 74//15 77//15
f  72//15 73//15 71//15
f  74//15 78//15 73//15
f  40//16 79//16 80//16
f  79//16 40//16 38//16
f  14//17 54//17 81//17
f  54//17 14//17 13//17
f  32//18 82//18 83//18
f  32//19 83//19 84//19
f  32//20 84//20 85//20
f  32//21 85//21 86//21
f  32//22 86//22 87//22
f  82//23 32//23 29//23
f  32//24 87//24 88//24
f  89//23 90//23 91//23
f  90//25 89//25 92//25
f  92//26 89//26 93//26
f  93//27 89//27 94//27
f  94//28 89//28 95//28
f  95//29 89//29 96//29
f  96//24 89//24 97//24
f  75//30 98//30 77//30
f  98//30 75//30 99//30
f  19//31 100//31 20//31
f  19//32 101//32 100//32
f  91//33 101//33 19//33
f  101//34 91//34 102//34
f  102//35 91//35 90//35
f  103//31 26//31 25//31
f  104//36 26//36 103//36
f  29//37 104//37 105//37
f  29//35 105//35 82//35
f  104//38 29//38 26//38
f  63//39 106//39 107//39
f  106//39 63//39 65//39
f  65//40 108//40 106//40
f  108//40 65//40 67//40
f  69//41 108//41 67//41
f  108//41 69//41 109//41
f  71//42 109//42 69//42
f  109//42 71//42 110//42
f  111//43 97//43 89//43
f  111//44 112//44 97//44
f  35//45 112//45 111//45
f  112//46 35//46 88//46
f  88//43 35//43 32//43
f  4//47 113//47 2//47
f  113//47 4//47 58//47
f  77//48 114//48 78//48
f  114//48 77//48 98//48
f  11//49 115//49 12//49
f  11//50 116//50 115//50
f  15//51 116//51 11//51
f  116//52 15//52 17//52
f  51//53 99//53 75//53
f  99//53 51//53 117//53
f  118//54 11//54 8//54
f  119//54 8//54 5//54
f  11//54 118//54 15//54
f  120//54 5//54 14//54
f  121//54 15//54 118//54
f  122//54 14//54 81//54
f  15//54 121//54 19//54
f  123//54 81//54 3//54
f  124//54 19//54 121//54
f  19//54 124//54 91//54
f  8//54 119//54 118//54
f  125//54 3//54 2//54
f  5//54 120//54 119//54
f  14//54 122//54 120//54
f  81//54 123//54 122//54
f  3//54 125//54 123//54
f  126//54 2//54 113//54
f  2//54 126//54 125//54
f  113//54 127//54 126//54
f  113//54 128//54 127//54
f  129//54 128//54 113//54
f  128//54 129//54 130//54
f  107//54 130//54 129//54
f  130//54 107//54 131//54
f  106//54 131//54 107//54
f  131//54 106//54 132//54
f  108//54 132//54 106//54
f  132//54 108//54 133//54
f  109//54 133//54 108//54
f  133//54 109//54 134//54
f  135//54 91//54 124//54
f  91//54 135//54 89//54
f  136//54 89//54 135//54
f  89//54 136//54 111//54
f  137//54 111//54 136//54
f  111//54 137//54 79//54
f  138//54 79//54 137//54
f  79//54 138//54 80//54
f  139//54 80//54 138//54
f  140//54 80//54 139//54
f  141//54 140//54 142//54
f  140//54 141//54 80//54
f  143//54 142//54 144//54
f  145//54 144//54 146//54
f  147//54 146//54 148//54
f  117//54 148//54 149//54
f  142//54 143//54 141//54
f  99//54 149//54 150//54
f  98//54 150//54 151//54
f  110//54 134//54 109//54
f  144//54 145//54 143//54
f  134//54 110//54 152//54
f  146//54 147//54 145//54
f  153//54 152//54 110//54
f  148//54 117//54 147//54
f  152//54 153//54 151//54
f  149//54 99//54 117//54
f  114//54 151//54 153//54
f  150//54 98//54 99//54
f  151//54 114//54 98//54
f  49//55 145//55 147//55
f  145//55 49//55 47//55
f  58//56 129//56 113//56
f  129//56 58//56 61//56
f  73//57 110//57 71//57
f  110//57 73//57 153//57
f  38//58 111//58 79//58
f  111//58 38//58 35//58
f  54//59 3//59 81//59
f  3//59 54//59 1//59
f  78//60 153//60 73//60
f  153//60 78//60 114//60
f  61//61 107//61 129//61
f  107//61 61//61 63//61
f  49//62 117//62 51//62
f  117//62 49//62 147//62
f  43//63 80//63 141//63
f  80//63 43//63 40//63
f  45//64 141//64 143//64
f  141//64 45//64 43//64
f  47//65 143//65 145//65
f  143//65 47//65 45//65
f  146//66 50//66 148//66
f  50//66 146//66 48//66
f  30//67 120//67 33//67
f  120//67 30//67 119//67
f  28//68 119//68 30//68
f  119//68 28//68 118//68
f  33//69 122//69 53//69
f  122//69 33//69 120//69
f  34//70 137//70 136//70
f  137//70 34//70 37//70
f  44//71 144//71 142//71
f  144//71 44//71 46//71
f  36//72 118//72 28//72
f  118//72 36//72 121//72
f  53//73 123//73 55//73
f  123//73 53//73 122//73
f  42//74 142//74 140//74
f  142//74 42//74 44//74
f  62//75 128//75 130//75
f  128//75 62//75 60//75
f  133//76 66//76 132//76
f  66//76 133//76 68//76
f  60//63 127//63 128//63
f  127//63 60//63 59//63
f  27//77 121//77 36//77
f  121//77 27//77 124//77
f  37//78 138//78 137//78
f  138//78 37//78 39//78
f  46//79 146//79 144//79
f  146//79 46//79 48//79
f  152//80 70//80 134//80
f  70//80 152//80 72//80
f  66//81 131//81 132//81
f  131//81 66//81 64//81
f  149//82 76//82 150//82
f  76//82 149//82 52//82
f  64//83 130//83 131//83
f  130//83 64//83 62//83
f  39//84 139//84 138//84
f  139//84 39//84 41//84
f  150//85 74//85 151//85
f  74//85 150//85 76//85
f  151//86 72//86 152//86
f  72//86 151//86 74//86
f  148//87 52//87 149//87
f  52//87 148//87 50//87
f  134//88 68//88 133//88
f  68//88 134//88 70//88
f  31//89 124//89 27//89
f  124//89 31//89 135//89
f  56//90 123//90 125//90
f  123//90 56//90 55//90
f  57//91 125//91 126//91
f  125//91 57//91 56//91
f  59//92 126//92 127//92
f  126//92 59//92 57//92
f  34//93 135//93 31//93
f  135//93 34//93 136//93
f  41//56 140//56 139//56
f  140//56 41//56 42//56
f  154//94 85//94 155//94
f  85//94 154//94 86//94
f  115//95 156//95 157//95
f  156//95 115//95 116//95
f  157//96 12//96 115//96
f  95//97 158//97 159//97
f  158//97 95//97 96//97
f  160//98 24//98 161//98
f  103//98 24//98 160//98
f  24//99 103//99 25//99
f  162//15 101//15 102//15
f  101//15 162//15 163//15
f  161//100 21//100 164//100
f  21//100 161//100 24//100
f  165//54 104//54 166//54
f  104//54 165//54 105//54
f  167//101 92//101 93//101
f  92//101 167//101 168//101
f  169//102 83//102 170//102
f  83//102 169//102 84//102
f  100//103 18//103 20//103
f  18//104 100//104 171//104
f  18//104 171//104 172//104
f  155//105 84//105 169//105
f  84//105 155//105 85//105
f  163//106 100//106 101//106
f  100//106 163//106 171//106
f  173//107 93//107 94//107
f  93//107 173//107 167//107
f  174//108 86//108 154//108
f  86//108 174//108 87//108
f  175//109 87//109 174//109
f  175//110 88//110 87//110
f  88//111 175//111 112//111
f  166//112 103//112 160//112
f  103//112 166//112 104//112
f  116//113 176//113 156//113
f  16//114 116//114 17//114
f  116//113 16//113 176//113
f  172//115 16//115 18//115
f  16//115 172//115 176//115
f  170//116 105//116 165//116
f  83//116 105//116 170//116
f  105//117 83//117 82//117
f  96//118 175//118 158//118
f  97//119 175//119 96//119
f  175//118 97//118 112//118
f  164//120 23//120 177//120
f  23//120 164//120 21//120
f  94//121 159//121 173//121
f  159//121 94//121 95//121
f  92//122 102//122 90//122
f  102//123 92//123 168//123
f  102//123 168//123 162//123
f  174//63 178//63 175//63
f  154//63 178//63 174//63
f  155//63 178//63 154//63
f  169//63 178//63 155//63
f  170//63 178//63 169//63
f  178//63 161//63 177//63
f  177//63 161//63 164//63
f  165//63 178//63 170//63
f  178//63 160//63 161//63
f  166//63 178//63 165//63
f  178//63 166//63 160//63
f  178//63 162//63 168//63
f  162//63 178//63 163//63
f  178//63 168//63 167//63
f  163//63 178//63 171//63
f  178//63 167//63 173//63
f  171//63 178//63 172//63
f  178//63 173//63 159//63
f  172//63 178//63 176//63
f  178//63 159//63 158//63
f  176//63 178//63 156//63
f  178//63 158//63 175//63
f  156//63 178//63 157//63
f  157//63 178//63 12//63
f  178//15 9//15 12//15
f  9//15 178//15 6//15
f  177//124 6//124 178//124
f  6//124 177//124 10//124
f  22//124 177//124 23//124
f  177//124 22//124 10//124
