# File produced by Open Asset Import Library (http://www.assimp.sf.net)
# (assimp v5.3.0)

mtllib shaft.mtl

# 60 vertex positions
v 4 0 150
v 3.91259003 0.831646979 0
v 3.91259003 0.831646979 150
v 4 0 0
v 3.65418005 1.62695003 0
v 3.65418005 1.62695003 150
v 3.23606992 2.35114002 0
v 3.23606992 2.35114002 150
v 2.67651987 2.97257996 0
v 2.67651987 2.97257996 150
v 2 3.46409988 150
v 2 3.46409988 0
v 1.23607004 3.80422997 150
v 1.23607004 3.80422997 0
v 0.418114007 3.97809005 150
v 0.418114007 3.97809005 0
v -0.418114007 3.97809005 150
v -0.418114007 3.97809005 0
v -1.23607004 3.80422997 150
v -1.23607004 3.80422997 0
v -2 3.46409988 150
v -2 3.46409988 0
v -2.67651987 2.97257996 150
v -2.67651987 2.97257996 0
v -3.23606992 2.35114002 0
v -3.23606992 2.35114002 150
v -3.65418005 1.62695003 0
v -3.65418005 1.62695003 150
v -3.91259003 0.831646979 0
v -3.91259003 0.831646979 150
v -4 0 0
v -4 0 150
v -3.91259003 -0.831646979 0
v -3.91259003 -0.831646979 150
v -3.65418005 -1.62695003 0
v -3.65418005 -1.62695003 150
v -3.23606992 -2.35114002 0
v -3.23606992 -2.35114002 150
v -2.67651987 -2.97257996 0
v -2.67651987 -2.97257996 150
v -2 -3.46409988 150
v -2 -3.46409988 0
v -1.23607004 -3.80422997 150
v -1.23607004 -3.80422997 0
v -0.418114007 -3.97809005 150
v -0.418114007 -3.97809005 0
v 0.418114007 -3.97809005 150
v 0.418114007 -3.97809005 0
v 1.23607004 -3.80422997 150
v 1.23607004 -3.80422997 0
v 2 -3.46409988 150
v 2 -3.46409988 0
v 2.67651987 -2.97257996 150
v 2.67651987 -2.97257996 0
v 3.23606992 -2.35114002 0
v 3.23606992 -2.35114002 150
v 3.65418005 -1.62695003 0
v 3.65418005 -1.62695003 150
v 3.91259003 -0.831646979 0
v 3.91259003 -0.831646979 150

# 0 UV coordinates

# 32 vertex normals
vn 0.994521976 0.104529001 0
vn 0.951056004 0.309017003 0
vn 0.866025984 0.499998987 0
vn 0.743143022 0.669133008 0
vn 0.587785006 0.809017003 0
vn 0.40674299 0.913542986 0
vn 0.207909003 0.978147984 0
vn 0 1 0
vn -0.207909003 0.978147984 0
vn -0.40674299 0.913542986 0
vn -0.587785006 0.809017003 0
vn -0.743143022 0.669133008 0
vn -0.866025984 0.499998987 0
vn -0.951056004 0.309017003 0
vn -0.994521976 0.104529001 0
vn -0.994521976 -0.104529001 0
vn -0.951056004 -0.309017003 0
vn -0.866025984 -0.499998987 0
vn -0.743143022 -0.669133008 0
vn -0.587785006 -0.809017003 0
vn -0.40674299 -0.913542986 0
vn -0.207909003 -0.978147984 0
vn 0 -1 0
vn 0.207909003 -0.978147984 0
vn 0.40674299 -0.913542986 0
vn 0.587785006 -0.809017003 0
vn 0.743143022 -0.669133008 0
vn 0.866025984 -0.499998987 0
vn 0.951056004 -0.309017003 0
vn 0.994521976 -0.104529001 0
vn 0 0 -1
vn 0 0 1

# Mesh 'OpenSCAD_Model' with 116 faces
g OpenSCAD_Model
usemtl DefaultMaterial
f  1//1 2//1 3//1
f  2//1 1//1 4//1
f  3//2 5//2 6//2
f  5//2 3//2 2//2
f  6//3 7//3 8//3
f  7//3 6//3 5//3
f  8//4 9//4 10//4
f  9//4 8//4 7//4
f  9//5 11//5 10//5
f  11//5 9//5 12//5
f  12//6 13//6 11//6
f  13//6 12//6 14//6
f  14//7 15//7 13//7
f  15//7 14//7 16//7
f  16//8 17//8 15//8
f  17//8 16//8 18//8
f  18//9 19//9 17//9
f  19//9 18//9 20//9
f  20//10 21//10 19//10
f  21//10 20//10 22//10
f  22//11 23//11 21//11
f  23//11 22//11 24//11
f  25//12 23//12 24//12
f  23//12 25//12 26//12
f  27//13 26//13 25//13
f  26//13 27//13 28//13
f  29//14 28//14 27//14
f  28//14 29//14 30//14
f  31//15 30//15 29//15
f  30//15 31//15 32//15
f  33//16 32//16 31//16
f  32//16 33//16 34//16
f  35//17 34//17 33//17
f  34//17 35//17 36//17
f  37//18 36//18 35//18
f  36//18 37//18 38//18
f  39//19 38//19 37//19
f  38//19 39//19 40//19
f  39//20 41//20 40//20
f  41//20 39//20 42//20
f  42//21 43//21 41//21
f  43//21 42//21 44//21
f  44//22 45//22 43//22
f  45//22 44//22 46//22
f  46//23 47//23 45//23
f  47//23 46//23 48//23
f  48//24 49//24 47//24
f  49//24 48//24 50//24
f  50//25 51//25 49//25
f  51//25 50//25 52//25
f  52//26 53//26 51//26
f  53//26 52//26 54//26
f  53//27 55//27 56//27
f  55//27 53//27 54//27
f  56//28 57//28 58//28
f  57//28 56//28 55//28
f  58//29 59//29 60//29
f  59//29 58//29 57//29
f  60//30 4//30 1//30
f  4//30 60//30 59//30
f  59//31 2//31 4//31
f  57//31 2//31 59//31
f  57//31 5//31 2//31
f  55//31 5//31 57//31
f  55//31 7//31 5//31
f  54//31 7//31 55//31
f  54//31 9//31 7//31
f  52//31 9//31 54//31
f  52//31 12//31 9//31
f  50//31 12//31 52//31
f  50//31 14//31 12//31
f  48//31 14//31 50//31
f  48//31 16//31 14//31
f  46//31 16//31 48//31
f  46//31 18//31 16//31
f  44//31 18//31 46//31
f  44//31 20//31 18//31
f  42//31 20//31 44//31
f  42//31 22//31 20//31
f  39//31 22//31 42//31
f  39//31 24//31 22//31
f  37//31 24//31 39//31
f  37//31 25//31 24//31
f  35//31 25//31 37//31
f  35//31 27//31 25//31
f  33//31 27//31 35//31
f  33//31 29//31 27//31
f  29//31 33//31 31//31
f  3//32 60//32 1//32
f  6//32 60//32 3//32
f  6//32 58//32 60//32
f  8//32 58//32 6//32
f  8//32 56//32 58//32
f  10//32 56//32 8//32
f  10//32 53//32 56//32
f  11//32 53//32 10//32
f  11//32 51//32 53//32
f  13//32 51//32 11//32
f  13//32 49//32 51//32
f  15//32 49//32 13//32
f  15//32 47//32 49//32
f  17//32 47//32 15//32
f  17//32 45//32 47//32
f  19//32 45//32 17//32
f  19//32 43//32 45//32
f  21//32 43//32 19//32
f  21//32 41//32 43//32
f  23//32 41//32 21//32
f  23//32 40//32 41//32
f  26//32 40//32 23//32
f  26//32 38//32 40//32
f  28//32 38//32 26//32
f  28//32 36//32 38//32
f  30//32 36//32 28//32
f  30//32 34//32 36//32
f  34//32 30//32 32//32
