# File produced by Open Asset Import Library (http://www.assimp.sf.net)
# (assimp v5.3.0)

mtllib stand.mtl

# 64 vertex positions
v 10 20 38.2510986
v 10 40 59
v 10 20 57.7489014
v 10 0 59
v 10 8 57.7489014
v 10 8 38.2510986
v 10 40 8
v 10 0 8
v 0 40 59
v 0 0 59
v 0 0 0
v 100 40 0
v 100 0 0
v 0 40 0
v 0 20 38.2510986
v 0 8 38.2510986
v 0 20 57.7489014
v 0 8 57.7489014
v 100 40 59
v 90 40 8
v 90 40 59
v 90 0 8
v 100 0 59
v 90 0 59
v 1.60081005 20 37.5383987
v 3.85018992 8 37.0602989
v 3.85018992 20 37.0602989
v 1.60081005 8 37.5383987
v 6.14980984 8 58.9397011
v 8.39918995 20 58.4616013
v 8.39918995 8 58.4616013
v 6.14980984 20 58.9397011
v 1.60081005 8 58.4616013
v 3.85018992 20 58.9397011
v 3.85018992 8 58.9397011
v 1.60081005 20 58.4616013
v 6.14980984 8 37.0602989
v 6.14980984 20 37.0602989
v 8.39918995 8 37.5383987
v 8.39918995 20 37.5383987
v 100 20 38.2510986
v 100 20 57.7489014
v 100 8 57.7489014
v 100 8 38.2510986
v 90 20 38.2510986
v 90 8 38.2510986
v 90 20 57.7489014
v 90 8 57.7489014
v 91.6007996 20 37.5383987
v 93.8501968 8 37.0602989
v 93.8501968 20 37.0602989
v 91.6007996 8 37.5383987
v 96.1498032 8 58.9397011
v 98.3992004 20 58.4616013
v 98.3992004 8 58.4616013
v 96.1498032 20 58.9397011
v 91.6007996 8 58.4616013
v 93.8501968 20 58.9397011
v 93.8501968 8 58.9397011
v 91.6007996 20 58.4616013
v 96.1498032 8 37.0602989
v 96.1498032 20 37.0602989
v 98.3992004 8 37.5383987
v 98.3992004 20 37.5383987

# 0 UV coordinates

# 22 vertex normals
vn 1 0 0
vn 0 0 1
vn 0 0 -1
vn -1 0 0
vn 0 1 0
vn 0 -1 0
vn 0.207902998 0 0.978148997
vn -0.207902998 0 -0.978148997
vn 0.207902998 0 -0.978148997
vn 0.406724006 0 0.913550973
vn -0.406724006 0 -0.913550973
vn 0.406724006 0 -0.913550973
vn -0.207902998 0 0.978148997
vn -0.406724006 0 0.913550973
vn 0.207901001 0 0.97815001
vn -0.207901001 0 -0.97815001
vn 0.207901001 0 -0.97815001
vn 0.406726003 0 0.913550019
vn -0.406726003 0 -0.913550019
vn 0.406726003 0 -0.913550019
vn -0.207901001 0 0.97815001
vn -0.406726003 0 0.913550019

# Mesh 'OpenSCAD_Model' with 132 faces
g OpenSCAD_Model
usemtl DefaultMaterial
f  1//1 2//1 3//1
f  4//1 3//1 2//1
f  5//1 4//1 6//1
f  3//1 4//1 5//1
f  2//1 1//1 7//1
f  8//1 1//1 6//1
f  1//1 8//1 7//1
f  8//1 6//1 4//1
f  9//2 4//2 2//2
f  4//2 9//2 10//2
f  11//3 12//3 13//3
f  12//3 11//3 14//3
f  14//4 15//4 9//4
f  11//4 15//4 14//4
f  10//4 16//4 11//4
f  15//4 11//4 16//4
f  17//4 9//4 15//4
f  10//4 17//4 18//4
f  17//4 10//4 9//4
f  16//4 10//4 18//4
f  19//5 20//5 21//5
f  20//5 12//5 7//5
f  12//5 20//5 19//5
f  7//5 9//5 2//5
f  7//5 14//5 9//5
f  14//5 7//5 12//5
f  10//6 8//6 4//6
f  8//6 11//6 22//6
f  11//6 8//6 10//6
f  22//6 23//6 24//6
f  22//6 13//6 23//6
f  13//6 22//6 11//6
f  25//7 26//7 27//7
f  26//7 25//7 28//7
f  29//8 30//8 31//8
f  30//8 29//8 32//8
f  33//9 34//9 35//9
f  34//9 33//9 36//9
f  15//10 28//10 25//10
f  28//10 15//10 16//10
f  31//11 3//11 5//11
f  3//11 31//11 30//11
f  35//3 32//3 29//3
f  32//3 35//3 34//3
f  18//12 36//12 33//12
f  36//12 18//12 17//12
f  27//2 37//2 38//2
f  37//2 27//2 26//2
f  38//13 39//13 40//13
f  39//13 38//13 37//13
f  40//14 6//14 1//14
f  6//14 40//14 39//14
f  5//5 29//5 31//5
f  29//5 5//5 35//5
f  18//5 35//5 5//5
f  35//5 18//5 33//5
f  6//5 18//5 5//5
f  6//5 16//5 18//5
f  37//5 6//5 39//5
f  6//5 37//5 16//5
f  26//5 16//5 37//5
f  16//5 26//5 28//5
f  17//6 34//6 36//6
f  34//6 17//6 32//6
f  3//6 32//6 17//6
f  32//6 3//6 30//6
f  15//6 3//6 17//6
f  15//6 1//6 3//6
f  27//6 15//6 25//6
f  15//6 27//6 1//6
f  38//6 1//6 27//6
f  1//6 38//6 40//6
f  41//1 19//1 42//1
f  23//1 42//1 19//1
f  43//1 23//1 44//1
f  42//1 23//1 43//1
f  19//1 41//1 12//1
f  13//1 41//1 44//1
f  41//1 13//1 12//1
f  13//1 44//1 23//1
f  21//2 23//2 19//2
f  23//2 21//2 24//2
f  20//4 45//4 21//4
f  22//4 45//4 20//4
f  24//4 46//4 22//4
f  45//4 22//4 46//4
f  47//4 21//4 45//4
f  24//4 47//4 48//4
f  47//4 24//4 21//4
f  46//4 24//4 48//4
f  49//15 50//15 51//15
f  50//15 49//15 52//15
f  53//16 54//16 55//16
f  54//16 53//16 56//16
f  57//17 58//17 59//17
f  58//17 57//17 60//17
f  45//18 52//18 49//18
f  52//18 45//18 46//18
f  55//19 42//19 43//19
f  42//19 55//19 54//19
f  59//3 56//3 53//3
f  56//3 59//3 58//3
f  48//20 60//20 57//20
f  60//20 48//20 47//20
f  51//2 61//2 62//2
f  61//2 51//2 50//2
f  62//21 63//21 64//21
f  63//21 62//21 61//21
f  64//22 44//22 41//22
f  44//22 64//22 63//22
f  43//5 53//5 55//5
f  53//5 43//5 59//5
f  48//5 59//5 43//5
f  59//5 48//5 57//5
f  44//5 48//5 43//5
f  44//5 46//5 48//5
f  61//5 44//5 63//5
f  44//5 61//5 46//5
f  50//5 46//5 61//5
f  46//5 50//5 52//5
f  47//6 58//6 60//6
f  58//6 47//6 56//6
f  42//6 56//6 47//6
f  56//6 42//6 54//6
f  45//6 42//6 47//6
f  45//6 41//6 42//6
f  51//6 45//6 49//6
f  45//6 51//6 41//6
f  62//6 41//6 51//6
f  41//6 62//6 64//6
f  7//2 22//2 20//2
f  22//2 7//2 8//2
