solid OpenSCAD_Model
  facet normal 0.406745 0.913542 -0
    outer loop
      vertex 6 10.3923 0
      vertex 3.7082 11.4127 20
      vertex 6 10.3923 20
    endloop
  endfacet
  facet normal 0.406745 0.913542 0
    outer loop
      vertex 3.7082 11.4127 20
      vertex 6 10.3923 0
      vertex 3.7082 11.4127 0
    endloop
  endfacet
  facet normal 0.951049 0.30904 0
    outer loop
      vertex 10.9625 4.88084 20
      vertex 11.5 3.22672 10
      vertex 10.9625 4.88084 0
    endloop
  endfacet
  facet normal 0.951048 0.309044 -7.16943e-07
    outer loop
      vertex 11.7378 2.49494 20
      vertex 11.5 3.22672 10
      vertex 10.9625 4.88084 20
    endloop
  endfacet
  facet normal 0.951045 0.309053 0
    outer loop
      vertex 11.5 3.22672 10
      vertex 11.7378 2.49494 20
      vertex 11.7378 2.49494 10
    endloop
  endfacet
  facet normal 0.951049 0.30904 0
    outer loop
      vertex 10.9625 4.88084 0
      vertex 11.5 3.22672 10
      vertex 11.5 3.22672 0
    endloop
  endfacet
  facet normal 0.994523 0.104517 0
    outer loop
      vertex 12 0 20
      vertex 11.7378 2.49494 10
      vertex 11.7378 2.49494 20
    endloop
  endfacet
  facet normal 0.994523 0.104517 0
    outer loop
      vertex 11.7378 2.49494 10
      vertex 12 0 20
      vertex 12 0 10
    endloop
  endfacet
  facet normal 0.866032 0.499988 0
    outer loop
      vertex 10.9625 4.88084 20
      vertex 9.7082 7.05342 0
      vertex 9.7082 7.05342 20
    endloop
  endfacet
  facet normal 0.866032 0.499988 0
    outer loop
      vertex 9.7082 7.05342 0
      vertex 10.9625 4.88084 20
      vertex 10.9625 4.88084 0
    endloop
  endfacet
  facet normal 0.951037 -0.309076 0
    outer loop
      vertex 11.7378 -2.49494 20
      vertex 11.497 -3.23589 11.3262
      vertex 11.7378 -2.49494 10.9775
    endloop
  endfacet
  facet normal 0.951054 -0.309025 -4.82829e-06
    outer loop
      vertex 11.7378 -2.49494 20
      vertex 11.1361 -4.3466 11.646
      vertex 11.497 -3.23589 11.3262
    endloop
  endfacet
  facet normal 0.951048 -0.309044 -1.92387e-07
    outer loop
      vertex 10.9625 -4.88084 20
      vertex 11.1361 -4.3466 11.646
      vertex 11.7378 -2.49494 20
    endloop
  endfacet
  facet normal 0.951049 -0.309041 0
    outer loop
      vertex 11.1361 -4.3466 11.646
      vertex 10.9625 -4.88084 20
      vertex 10.9625 -4.88084 11.7371
    endloop
  endfacet
  facet normal 0.950431 -0.310937 0
    outer loop
      vertex 11.497 -3.23589 8.67375
      vertex 11.5 -3.22672 0
      vertex 11.5 -3.22672 8.67807
    endloop
  endfacet
  facet normal 0.951054 -0.309024 2.23795e-06
    outer loop
      vertex 11.1361 -4.3466 8.35403
      vertex 11.5 -3.22672 0
      vertex 11.497 -3.23589 8.67375
    endloop
  endfacet
  facet normal 0.951049 -0.309041 -2.56664e-07
    outer loop
      vertex 10.9625 -4.88084 8.26293
      vertex 11.5 -3.22672 0
      vertex 11.1361 -4.3466 8.35403
    endloop
  endfacet
  facet normal 0.951049 -0.30904 0
    outer loop
      vertex 11.5 -3.22672 0
      vertex 10.9625 -4.88084 8.26293
      vertex 10.9625 -4.88084 0
    endloop
  endfacet
  facet normal 0 0 -1
    outer loop
      vertex 3.65418 -1.62695 0
      vertex 11.5 -3.22672 0
      vertex 10.9625 -4.88084 0
    endloop
  endfacet
  facet normal 0 0 -1
    outer loop
      vertex 11.5 -3.22672 0
      vertex 4 0 0
      vertex 11.5 3.22672 0
    endloop
  endfacet
  facet normal 0 0 -1
    outer loop
      vertex 3.65418 -1.62695 0
      vertex 10.9625 -4.88084 0
      vertex 9.7082 -7.05342 0
    endloop
  endfacet
  facet normal 0 0 -1
    outer loop
      vertex 3.91259 0.831646 0
      vertex 11.5 3.22672 0
      vertex 4 0 0
    endloop
  endfacet
  facet normal 0 0 -1
    outer loop
      vertex 3.23607 -2.35114 0
      vertex 9.7082 -7.05342 0
      vertex 8.02957 -8.91774 0
    endloop
  endfacet
  facet normal 0 0 -1
    outer loop
      vertex 3.65418 1.62695 0
      vertex 11.5 3.22672 0
      vertex 3.91259 0.831646 0
    endloop
  endfacet
  facet normal 0 0 -1
    outer loop
      vertex 2.67652 -2.97258 0
      vertex 8.02957 -8.91774 0
      vertex 6 -10.3923 0
    endloop
  endfacet
  facet normal -0 0 -1
    outer loop
      vertex 11.5 3.22672 0
      vertex 3.65418 1.62695 0
      vertex 10.9625 4.88084 0
    endloop
  endfacet
  facet normal -0 0 -1
    outer loop
      vertex 10.9625 4.88084 0
      vertex 3.65418 1.62695 0
      vertex 9.7082 7.05342 0
    endloop
  endfacet
  facet normal 0 0 -1
    outer loop
      vertex 11.5 -3.22672 0
      vertex 3.91259 -0.831646 0
      vertex 4 0 0
    endloop
  endfacet
  facet normal 0 0 -1
    outer loop
      vertex 2 -3.4641 0
      vertex 6 -10.3923 0
      vertex 3.7082 -11.4127 0
    endloop
  endfacet
  facet normal 0 0 -1
    outer loop
      vertex 11.5 -3.22672 0
      vertex 3.65418 -1.62695 0
      vertex 3.91259 -0.831646 0
    endloop
  endfacet
  facet normal 0 0 -1
    outer loop
      vertex 9.7082 -7.05342 0
      vertex 3.23607 -2.35114 0
      vertex 3.65418 -1.62695 0
    endloop
  endfacet
  facet normal 0 0 -1
    outer loop
      vertex 8.02957 -8.91774 0
      vertex 2.67652 -2.97258 0
      vertex 3.23607 -2.35114 0
    endloop
  endfacet
  facet normal 0 0 -1
    outer loop
      vertex 6 -10.3923 0
      vertex 2 -3.4641 0
      vertex 2.67652 -2.97258 0
    endloop
  endfacet
  facet normal 0 0 -1
    outer loop
      vertex 1.23607 -3.80423 0
      vertex 3.7082 -11.4127 0
      vertex 1.25434 -11.9343 0
    endloop
  endfacet
  facet normal 0 0 -1
    outer loop
      vertex 3.7082 -11.4127 0
      vertex 1.23607 -3.80423 0
      vertex 2 -3.4641 0
    endloop
  endfacet
  facet normal 0 0 -1
    outer loop
      vertex 1.25434 -11.9343 0
      vertex 0.418114 -3.97809 0
      vertex 1.23607 -3.80423 0
    endloop
  endfacet
  facet normal 0 0 -1
    outer loop
      vertex 1.25434 -11.9343 0
      vertex -0.418114 -3.97809 0
      vertex 0.418114 -3.97809 0
    endloop
  endfacet
  facet normal 0 0 -1
    outer loop
      vertex -1.25434 -11.9343 0
      vertex -0.418114 -3.97809 0
      vertex 1.25434 -11.9343 0
    endloop
  endfacet
  facet normal -0 0 -1
    outer loop
      vertex -0.418114 -3.97809 0
      vertex -1.25434 -11.9343 0
      vertex -1.23607 -3.80423 0
    endloop
  endfacet
  facet normal 0 0 -1
    outer loop
      vertex -3.7082 -11.4127 0
      vertex -1.23607 -3.80423 0
      vertex -1.25434 -11.9343 0
    endloop
  endfacet
  facet normal -0 0 -1
    outer loop
      vertex -1.23607 -3.80423 0
      vertex -3.7082 -11.4127 0
      vertex -2 -3.4641 0
    endloop
  endfacet
  facet normal 0 0 -1
    outer loop
      vertex -6 -10.3923 0
      vertex -2 -3.4641 0
      vertex -3.7082 -11.4127 0
    endloop
  endfacet
  facet normal -0 0 -1
    outer loop
      vertex -2 -3.4641 0
      vertex -6 -10.3923 0
      vertex -2.67652 -2.97258 0
    endloop
  endfacet
  facet normal 0 0 -1
    outer loop
      vertex -8.02957 -8.91774 0
      vertex -2.67652 -2.97258 0
      vertex -6 -10.3923 0
    endloop
  endfacet
  facet normal -0 0 -1
    outer loop
      vertex -2.67652 -2.97258 0
      vertex -8.02957 -8.91774 0
      vertex -3.23607 -2.35114 0
    endloop
  endfacet
  facet normal 0 0 -1
    outer loop
      vertex -9.7082 -7.05342 0
      vertex -3.23607 -2.35114 0
      vertex -8.02957 -8.91774 0
    endloop
  endfacet
  facet normal -0 0 -1
    outer loop
      vertex -3.23607 -2.35114 0
      vertex -9.7082 -7.05342 0
      vertex -3.65418 -1.62695 0
    endloop
  endfacet
  facet normal 0 0 -1
    outer loop
      vertex 3.23607 2.35114 0
      vertex 9.7082 7.05342 0
      vertex 3.65418 1.62695 0
    endloop
  endfacet
  facet normal -0 0 -1
    outer loop
      vertex 9.7082 7.05342 0
      vertex 3.23607 2.35114 0
      vertex 8.02957 8.91774 0
    endloop
  endfacet
  facet normal 0 0 -1
    outer loop
      vertex 2.67652 2.97258 0
      vertex 8.02957 8.91774 0
      vertex 3.23607 2.35114 0
    endloop
  endfacet
  facet normal -0 0 -1
    outer loop
      vertex 8.02957 8.91774 0
      vertex 2.67652 2.97258 0
      vertex 6 10.3923 0
    endloop
  endfacet
  facet normal 0 0 -1
    outer loop
      vertex 2 3.4641 0
      vertex 6 10.3923 0
      vertex 2.67652 2.97258 0
    endloop
  endfacet
  facet normal -0 0 -1
    outer loop
      vertex 6 10.3923 0
      vertex 2 3.4641 0
      vertex 3.7082 11.4127 0
    endloop
  endfacet
  facet normal 0 0 -1
    outer loop
      vertex 1.23607 3.80423 0
      vertex 3.7082 11.4127 0
      vertex 2 3.4641 0
    endloop
  endfacet
  facet normal -0 0 -1
    outer loop
      vertex 3.7082 11.4127 0
      vertex 1.23607 3.80423 0
      vertex 1.25434 11.9343 0
    endloop
  endfacet
  facet normal 0 0 -1
    outer loop
      vertex 0.418114 3.97809 0
      vertex 1.25434 11.9343 0
      vertex 1.23607 3.80423 0
    endloop
  endfacet
  facet normal 0 0 -1
    outer loop
      vertex -0.418114 3.97809 0
      vertex 1.25434 11.9343 0
      vertex 0.418114 3.97809 0
    endloop
  endfacet
  facet normal 0 0 -1
    outer loop
      vertex -1.25434 11.9343 0
      vertex -0.418114 3.97809 0
      vertex -1.23607 3.80423 0
    endloop
  endfacet
  facet normal 0 0 -1
    outer loop
      vertex -0.418114 3.97809 0
      vertex -1.25434 11.9343 0
      vertex 1.25434 11.9343 0
    endloop
  endfacet
  facet normal 0 0 -1
    outer loop
      vertex -3.7082 11.4127 0
      vertex -1.23607 3.80423 0
      vertex -2 3.4641 0
    endloop
  endfacet
  facet normal 0 0 -1
    outer loop
      vertex -6 10.3923 0
      vertex -2 3.4641 0
      vertex -2.67652 2.97258 0
    endloop
  endfacet
  facet normal 0 0 -1
    outer loop
      vertex -8.02957 8.91774 0
      vertex -2.67652 2.97258 0
      vertex -3.23607 2.35114 0
    endloop
  endfacet
  facet normal 0 0 -1
    outer loop
      vertex -9.7082 7.05342 0
      vertex -3.23607 2.35114 0
      vertex -3.65418 1.62695 0
    endloop
  endfacet
  facet normal 0 0 -1
    outer loop
      vertex -1.23607 3.80423 0
      vertex -3.7082 11.4127 0
      vertex -1.25434 11.9343 0
    endloop
  endfacet
  facet normal 0 0 -1
    outer loop
      vertex -10.9625 4.88084 0
      vertex -3.65418 1.62695 0
      vertex -3.91259 0.831646 0
    endloop
  endfacet
  facet normal 0 0 -1
    outer loop
      vertex -11.7378 2.49494 0
      vertex -3.91259 0.831646 0
      vertex -4 0 0
    endloop
  endfacet
  facet normal 0 0 -1
    outer loop
      vertex -10.9625 -4.88084 0
      vertex -3.65418 -1.62695 0
      vertex -9.7082 -7.05342 0
    endloop
  endfacet
  facet normal 0 0 -1
    outer loop
      vertex -2 3.4641 0
      vertex -6 10.3923 0
      vertex -3.7082 11.4127 0
    endloop
  endfacet
  facet normal -0 0 -1
    outer loop
      vertex -3.65418 -1.62695 0
      vertex -10.9625 -4.88084 0
      vertex -3.91259 -0.831646 0
    endloop
  endfacet
  facet normal 0 0 -1
    outer loop
      vertex -2.67652 2.97258 0
      vertex -8.02957 8.91774 0
      vertex -6 10.3923 0
    endloop
  endfacet
  facet normal 0 0 -1
    outer loop
      vertex -11.7378 -2.49494 0
      vertex -3.91259 -0.831646 0
      vertex -10.9625 -4.88084 0
    endloop
  endfacet
  facet normal 0 0 -1
    outer loop
      vertex -3.23607 2.35114 0
      vertex -9.7082 7.05342 0
      vertex -8.02957 8.91774 0
    endloop
  endfacet
  facet normal -0 0 -1
    outer loop
      vertex -3.91259 -0.831646 0
      vertex -11.7378 -2.49494 0
      vertex -4 0 0
    endloop
  endfacet
  facet normal 0 0 -1
    outer loop
      vertex -3.65418 1.62695 0
      vertex -10.9625 4.88084 0
      vertex -9.7082 7.05342 0
    endloop
  endfacet
  facet normal 0 0 -1
    outer loop
      vertex -12 0 0
      vertex -4 0 0
      vertex -11.7378 -2.49494 0
    endloop
  endfacet
  facet normal 0 0 -1
    outer loop
      vertex -3.91259 0.831646 0
      vertex -11.7378 2.49494 0
      vertex -10.9625 4.88084 0
    endloop
  endfacet
  facet normal 0 0 -1
    outer loop
      vertex -4 0 0
      vertex -12 0 0
      vertex -11.7378 2.49494 0
    endloop
  endfacet
  facet normal 0.207918 -0.978146 0
    outer loop
      vertex 1.25434 -11.9343 0
      vertex 3.7082 -11.4127 20
      vertex 1.25434 -11.9343 20
    endloop
  endfacet
  facet normal 0.207918 -0.978146 0
    outer loop
      vertex 3.7082 -11.4127 20
      vertex 1.25434 -11.9343 0
      vertex 3.7082 -11.4127 0
    endloop
  endfacet
  facet normal 0.743147 0.669128 0
    outer loop
      vertex 9.7082 7.05342 20
      vertex 8.02957 8.91774 0
      vertex 8.02957 8.91774 20
    endloop
  endfacet
  facet normal 0.743147 0.669128 0
    outer loop
      vertex 8.02957 8.91774 0
      vertex 9.7082 7.05342 20
      vertex 9.7082 7.05342 0
    endloop
  endfacet
  facet normal 0.743151 -0.669123 -1.95051e-06
    outer loop
      vertex 8.02957 -8.91774 0
      vertex 9.7082 -7.05342 8.02708
      vertex 9.29079 -7.51701 8.12997
    endloop
  endfacet
  facet normal 0.743143 -0.669132 8.55848e-07
    outer loop
      vertex 8.02957 -8.91774 0
      vertex 9.29079 -7.51701 8.12997
      vertex 8.86387 -7.99115 8.35403
    endloop
  endfacet
  facet normal 0.743146 -0.66913 2.61422e-07
    outer loop
      vertex 8.02957 -8.91774 0
      vertex 8.86387 -7.99115 8.35403
      vertex 8.50298 -8.39196 8.67375
    endloop
  endfacet
  facet normal 0.743149 -0.669125 -1.8368e-07
    outer loop
      vertex 8.02957 -8.91774 0
      vertex 8.50298 -8.39196 8.67375
      vertex 8.22909 -8.69615 9.07055
    endloop
  endfacet
  facet normal 0.743143 -0.669133 1.5689e-07
    outer loop
      vertex 8.02957 -8.91774 0
      vertex 8.22909 -8.69615 9.07055
      vertex 8.05812 -8.88603 9.52137
    endloop
  endfacet
  facet normal 0.743147 -0.669128 0
    outer loop
      vertex 9.7082 -7.05342 8.02708
      vertex 8.02957 -8.91774 0
      vertex 9.7082 -7.05342 0
    endloop
  endfacet
  facet normal 0.743166 -0.669107 0
    outer loop
      vertex 8.02957 -8.91774 0
      vertex 8.05812 -8.88603 9.52137
      vertex 8.02957 -8.91774 9.75649
    endloop
  endfacet
  facet normal 0.743147 -0.669128 0
    outer loop
      vertex 8.02957 -8.91774 20
      vertex 9.7082 -7.05342 11.9729
      vertex 9.7082 -7.05342 20
    endloop
  endfacet
  facet normal 0.743151 -0.669123 1.9505e-06
    outer loop
      vertex 9.7082 -7.05342 11.9729
      vertex 8.02957 -8.91774 20
      vertex 9.29079 -7.51701 11.87
    endloop
  endfacet
  facet normal 0.743143 -0.669132 -8.55863e-07
    outer loop
      vertex 9.29079 -7.51701 11.87
      vertex 8.02957 -8.91774 20
      vertex 8.86387 -7.99115 11.646
    endloop
  endfacet
  facet normal 0.743146 -0.66913 -2.61418e-07
    outer loop
      vertex 8.86387 -7.99115 11.646
      vertex 8.02957 -8.91774 20
      vertex 8.50298 -8.39196 11.3262
    endloop
  endfacet
  facet normal 0.743149 -0.669125 1.83679e-07
    outer loop
      vertex 8.50298 -8.39196 11.3262
      vertex 8.02957 -8.91774 20
      vertex 8.22909 -8.69615 10.9294
    endloop
  endfacet
  facet normal 0.743143 -0.669133 -1.5689e-07
    outer loop
      vertex 8.22909 -8.69615 10.9294
      vertex 8.02957 -8.91774 20
      vertex 8.05812 -8.88603 10.4786
    endloop
  endfacet
  facet normal 0.743166 -0.669107 0
    outer loop
      vertex 8.05812 -8.88603 10.4786
      vertex 8.02957 -8.91774 20
      vertex 8.02957 -8.91774 10.2435
    endloop
  endfacet
  facet normal -0.951048 -0.309044 0
    outer loop
      vertex -10.9625 -4.88084 0
      vertex -11.7378 -2.49494 20
      vertex -11.7378 -2.49494 0
    endloop
  endfacet
  facet normal -0.951048 -0.309044 0
    outer loop
      vertex -11.7378 -2.49494 20
      vertex -10.9625 -4.88084 0
      vertex -10.9625 -4.88084 20
    endloop
  endfacet
  facet normal 0.866056 -0.499947 0
    outer loop
      vertex 10.9625 -4.88084 20
      vertex 10.7092 -5.31963 11.87
      vertex 10.9625 -4.88084 11.7371
    endloop
  endfacet
  facet normal 0.866043 -0.499969 1.54193e-06
    outer loop
      vertex 10.9625 -4.88084 20
      vertex 10.2411 -6.13047 11.9854
      vertex 10.7092 -5.31963 11.87
    endloop
  endfacet
  facet normal 0.866032 -0.499988 5.55543e-06
    outer loop
      vertex 9.7082 -7.05342 20
      vertex 10.2411 -6.13047 11.9854
      vertex 10.9625 -4.88084 20
    endloop
  endfacet
  facet normal 0.866014 -0.500019 7.74859e-07
    outer loop
      vertex 10.2411 -6.13047 11.9854
      vertex 9.7082 -7.05342 20
      vertex 9.75893 -6.96557 11.9854
    endloop
  endfacet
  facet normal 0.865984 -0.500072 0
    outer loop
      vertex 9.75893 -6.96557 11.9854
      vertex 9.7082 -7.05342 20
      vertex 9.7082 -7.05342 11.9729
    endloop
  endfacet
  facet normal 0.866056 -0.499947 0
    outer loop
      vertex 10.7092 -5.31963 8.12997
      vertex 10.9625 -4.88084 0
      vertex 10.9625 -4.88084 8.26293
    endloop
  endfacet
  facet normal 0.866043 -0.499969 -1.54194e-06
    outer loop
      vertex 10.2411 -6.13047 8.01458
      vertex 10.9625 -4.88084 0
      vertex 10.7092 -5.31963 8.12997
    endloop
  endfacet
  facet normal 0.866014 -0.500019 -7.74861e-07
    outer loop
      vertex 9.7082 -7.05342 0
      vertex 10.2411 -6.13047 8.01458
      vertex 9.75893 -6.96557 8.01458
    endloop
  endfacet
  facet normal 0.865984 -0.500072 0
    outer loop
      vertex 9.7082 -7.05342 0
      vertex 9.75893 -6.96557 8.01458
      vertex 9.7082 -7.05342 8.02708
    endloop
  endfacet
  facet normal 0.866032 -0.499988 -5.55545e-06
    outer loop
      vertex 10.2411 -6.13047 8.01458
      vertex 9.7082 -7.05342 0
      vertex 10.9625 -4.88084 0
    endloop
  endfacet
  facet normal -0.406745 0.913542 0
    outer loop
      vertex -3.7082 11.4127 0
      vertex -6 10.3923 20
      vertex -3.7082 11.4127 20
    endloop
  endfacet
  facet normal -0.406745 0.913542 0
    outer loop
      vertex -6 10.3923 20
      vertex -3.7082 11.4127 0
      vertex -6 10.3923 0
    endloop
  endfacet
  facet normal -0.587783 0.809019 0
    outer loop
      vertex -6 10.3923 0
      vertex -8.02957 8.91774 20
      vertex -6 10.3923 20
    endloop
  endfacet
  facet normal -0.587783 0.809019 0
    outer loop
      vertex -8.02957 8.91774 20
      vertex -6 10.3923 0
      vertex -8.02957 8.91774 0
    endloop
  endfacet
  facet normal -0.743147 0.669128 0
    outer loop
      vertex -9.7082 7.05342 0
      vertex -8.02957 8.91774 20
      vertex -8.02957 8.91774 0
    endloop
  endfacet
  facet normal -0.743147 0.669128 0
    outer loop
      vertex -8.02957 8.91774 20
      vertex -9.7082 7.05342 0
      vertex -9.7082 7.05342 20
    endloop
  endfacet
  facet normal -0.866032 0.499988 0
    outer loop
      vertex -10.9625 4.88084 0
      vertex -9.7082 7.05342 20
      vertex -9.7082 7.05342 0
    endloop
  endfacet
  facet normal -0.866032 0.499988 0
    outer loop
      vertex -9.7082 7.05342 20
      vertex -10.9625 4.88084 0
      vertex -10.9625 4.88084 20
    endloop
  endfacet
  facet normal 0.587783 -0.809019 0
    outer loop
      vertex 6 -10.3923 20
      vertex 8.02957 -8.91774 10.2435
      vertex 8.02957 -8.91774 20
    endloop
  endfacet
  facet normal 0.587758 -0.809037 -7.83051e-06
    outer loop
      vertex 6 -10.3923 20
      vertex 8 -8.93922 10
      vertex 8.02957 -8.91774 10.2435
    endloop
  endfacet
  facet normal 0.587784 -0.809018 0
    outer loop
      vertex 6 -10.3923 0
      vertex 8 -8.93922 10
      vertex 6 -10.3923 20
    endloop
  endfacet
  facet normal 0.587758 -0.809037 7.83031e-06
    outer loop
      vertex 8 -8.93922 10
      vertex 6 -10.3923 0
      vertex 8.02957 -8.91774 9.75649
    endloop
  endfacet
  facet normal 0.587783 -0.809019 0
    outer loop
      vertex 8.02957 -8.91774 9.75649
      vertex 6 -10.3923 0
      vertex 8.02957 -8.91774 0
    endloop
  endfacet
  facet normal 0.207918 0.978146 -0
    outer loop
      vertex 3.7082 11.4127 0
      vertex 1.25434 11.9343 20
      vertex 3.7082 11.4127 20
    endloop
  endfacet
  facet normal 0.207918 0.978146 0
    outer loop
      vertex 1.25434 11.9343 20
      vertex 3.7082 11.4127 0
      vertex 1.25434 11.9343 0
    endloop
  endfacet
  facet normal -0.994523 -0.104517 0
    outer loop
      vertex -11.7378 -2.49494 0
      vertex -12 0 20
      vertex -12 0 0
    endloop
  endfacet
  facet normal -0.994523 -0.104517 0
    outer loop
      vertex -12 0 20
      vertex -11.7378 -2.49494 0
      vertex -11.7378 -2.49494 20
    endloop
  endfacet
  facet normal 0.994525 -0.104498 0
    outer loop
      vertex 12 0 20
      vertex 11.9419 -0.552945 10.4786
      vertex 12 0 10
    endloop
  endfacet
  facet normal 0.99452 -0.104545 2.72976e-06
    outer loop
      vertex 12 0 20
      vertex 11.7709 -2.17963 10.9294
      vertex 11.9419 -0.552945 10.4786
    endloop
  endfacet
  facet normal 0.994523 -0.104517 -4.03283e-06
    outer loop
      vertex 11.7378 -2.49494 20
      vertex 11.7709 -2.17963 10.9294
      vertex 12 0 20
    endloop
  endfacet
  facet normal 0.994535 -0.104402 0
    outer loop
      vertex 11.7709 -2.17963 10.9294
      vertex 11.7378 -2.49494 20
      vertex 11.7378 -2.49494 10.9775
    endloop
  endfacet
  facet normal -0.866032 -0.499988 0
    outer loop
      vertex -9.7082 -7.05342 0
      vertex -10.9625 -4.88084 20
      vertex -10.9625 -4.88084 0
    endloop
  endfacet
  facet normal -0.866032 -0.499988 0
    outer loop
      vertex -10.9625 -4.88084 20
      vertex -9.7082 -7.05342 0
      vertex -9.7082 -7.05342 20
    endloop
  endfacet
  facet normal 0 0 1
    outer loop
      vertex 4 0 20
      vertex 12 0 20
      vertex 11.7378 2.49494 20
    endloop
  endfacet
  facet normal 0 0 1
    outer loop
      vertex 3.91259 0.831646 20
      vertex 11.7378 2.49494 20
      vertex 10.9625 4.88084 20
    endloop
  endfacet
  facet normal 0 0 1
    outer loop
      vertex 12 0 20
      vertex 4 0 20
      vertex 11.7378 -2.49494 20
    endloop
  endfacet
  facet normal 0 0 1
    outer loop
      vertex 3.65418 1.62695 20
      vertex 10.9625 4.88084 20
      vertex 9.7082 7.05342 20
    endloop
  endfacet
  facet normal -0 0 1
    outer loop
      vertex 3.91259 -0.831646 20
      vertex 11.7378 -2.49494 20
      vertex 4 0 20
    endloop
  endfacet
  facet normal 0 0 1
    outer loop
      vertex 3.23607 2.35114 20
      vertex 9.7082 7.05342 20
      vertex 8.02957 8.91774 20
    endloop
  endfacet
  facet normal 0 0 1
    outer loop
      vertex 11.7378 -2.49494 20
      vertex 3.91259 -0.831646 20
      vertex 10.9625 -4.88084 20
    endloop
  endfacet
  facet normal 0 0 1
    outer loop
      vertex 2.67652 2.97258 20
      vertex 8.02957 8.91774 20
      vertex 6 10.3923 20
    endloop
  endfacet
  facet normal -0 0 1
    outer loop
      vertex 3.65418 -1.62695 20
      vertex 10.9625 -4.88084 20
      vertex 3.91259 -0.831646 20
    endloop
  endfacet
  facet normal 0 0 1
    outer loop
      vertex 10.9625 -4.88084 20
      vertex 3.65418 -1.62695 20
      vertex 9.7082 -7.05342 20
    endloop
  endfacet
  facet normal 0 0 1
    outer loop
      vertex 11.7378 2.49494 20
      vertex 3.91259 0.831646 20
      vertex 4 0 20
    endloop
  endfacet
  facet normal 0 0 1
    outer loop
      vertex 2 3.4641 20
      vertex 6 10.3923 20
      vertex 3.7082 11.4127 20
    endloop
  endfacet
  facet normal 0 0 1
    outer loop
      vertex 10.9625 4.88084 20
      vertex 3.65418 1.62695 20
      vertex 3.91259 0.831646 20
    endloop
  endfacet
  facet normal 0 0 1
    outer loop
      vertex 9.7082 7.05342 20
      vertex 3.23607 2.35114 20
      vertex 3.65418 1.62695 20
    endloop
  endfacet
  facet normal 0 0 1
    outer loop
      vertex 8.02957 8.91774 20
      vertex 2.67652 2.97258 20
      vertex 3.23607 2.35114 20
    endloop
  endfacet
  facet normal 0 0 1
    outer loop
      vertex 6 10.3923 20
      vertex 2 3.4641 20
      vertex 2.67652 2.97258 20
    endloop
  endfacet
  facet normal 0 0 1
    outer loop
      vertex 1.23607 3.80423 20
      vertex 3.7082 11.4127 20
      vertex 1.25434 11.9343 20
    endloop
  endfacet
  facet normal 0 0 1
    outer loop
      vertex 3.7082 11.4127 20
      vertex 1.23607 3.80423 20
      vertex 2 3.4641 20
    endloop
  endfacet
  facet normal 0 0 1
    outer loop
      vertex 1.25434 11.9343 20
      vertex 0.418114 3.97809 20
      vertex 1.23607 3.80423 20
    endloop
  endfacet
  facet normal 0 0 1
    outer loop
      vertex 1.25434 11.9343 20
      vertex -0.418114 3.97809 20
      vertex 0.418114 3.97809 20
    endloop
  endfacet
  facet normal -0 0 1
    outer loop
      vertex -1.25434 11.9343 20
      vertex -0.418114 3.97809 20
      vertex 1.25434 11.9343 20
    endloop
  endfacet
  facet normal 0 0 1
    outer loop
      vertex -0.418114 3.97809 20
      vertex -1.25434 11.9343 20
      vertex -1.23607 3.80423 20
    endloop
  endfacet
  facet normal -0 0 1
    outer loop
      vertex -3.7082 11.4127 20
      vertex -1.23607 3.80423 20
      vertex -1.25434 11.9343 20
    endloop
  endfacet
  facet normal 0 0 1
    outer loop
      vertex -1.23607 3.80423 20
      vertex -3.7082 11.4127 20
      vertex -2 3.4641 20
    endloop
  endfacet
  facet normal -0 0 1
    outer loop
      vertex -6 10.3923 20
      vertex -2 3.4641 20
      vertex -3.7082 11.4127 20
    endloop
  endfacet
  facet normal 0 0 1
    outer loop
      vertex -2 3.4641 20
      vertex -6 10.3923 20
      vertex -2.67652 2.97258 20
    endloop
  endfacet
  facet normal -0 0 1
    outer loop
      vertex -8.02957 8.91774 20
      vertex -2.67652 2.97258 20
      vertex -6 10.3923 20
    endloop
  endfacet
  facet normal 0 0 1
    outer loop
      vertex -2.67652 2.97258 20
      vertex -8.02957 8.91774 20
      vertex -3.23607 2.35114 20
    endloop
  endfacet
  facet normal -0 0 1
    outer loop
      vertex -9.7082 7.05342 20
      vertex -3.23607 2.35114 20
      vertex -8.02957 8.91774 20
    endloop
  endfacet
  facet normal 0 0 1
    outer loop
      vertex -3.23607 2.35114 20
      vertex -9.7082 7.05342 20
      vertex -3.65418 1.62695 20
    endloop
  endfacet
  facet normal -0 0 1
    outer loop
      vertex 3.23607 -2.35114 20
      vertex 9.7082 -7.05342 20
      vertex 3.65418 -1.62695 20
    endloop
  endfacet
  facet normal 0 0 1
    outer loop
      vertex 9.7082 -7.05342 20
      vertex 3.23607 -2.35114 20
      vertex 8.02957 -8.91774 20
    endloop
  endfacet
  facet normal -0 0 1
    outer loop
      vertex 2.67652 -2.97258 20
      vertex 8.02957 -8.91774 20
      vertex 3.23607 -2.35114 20
    endloop
  endfacet
  facet normal 0 0 1
    outer loop
      vertex 8.02957 -8.91774 20
      vertex 2.67652 -2.97258 20
      vertex 6 -10.3923 20
    endloop
  endfacet
  facet normal -0 0 1
    outer loop
      vertex 2 -3.4641 20
      vertex 6 -10.3923 20
      vertex 2.67652 -2.97258 20
    endloop
  endfacet
  facet normal 0 0 1
    outer loop
      vertex 6 -10.3923 20
      vertex 2 -3.4641 20
      vertex 3.7082 -11.4127 20
    endloop
  endfacet
  facet normal -0 0 1
    outer loop
      vertex 1.23607 -3.80423 20
      vertex 3.7082 -11.4127 20
      vertex 2 -3.4641 20
    endloop
  endfacet
  facet normal 0 0 1
    outer loop
      vertex 3.7082 -11.4127 20
      vertex 1.23607 -3.80423 20
      vertex 1.25434 -11.9343 20
    endloop
  endfacet
  facet normal -0 0 1
    outer loop
      vertex 0.418114 -3.97809 20
      vertex 1.25434 -11.9343 20
      vertex 1.23607 -3.80423 20
    endloop
  endfacet
  facet normal -0 0 1
    outer loop
      vertex -0.418114 -3.97809 20
      vertex 1.25434 -11.9343 20
      vertex 0.418114 -3.97809 20
    endloop
  endfacet
  facet normal 0 0 1
    outer loop
      vertex -1.25434 -11.9343 20
      vertex -0.418114 -3.97809 20
      vertex -1.23607 -3.80423 20
    endloop
  endfacet
  facet normal 0 0 1
    outer loop
      vertex -0.418114 -3.97809 20
      vertex -1.25434 -11.9343 20
      vertex 1.25434 -11.9343 20
    endloop
  endfacet
  facet normal 0 0 1
    outer loop
      vertex -3.7082 -11.4127 20
      vertex -1.23607 -3.80423 20
      vertex -2 -3.4641 20
    endloop
  endfacet
  facet normal 0 0 1
    outer loop
      vertex -6 -10.3923 20
      vertex -2 -3.4641 20
      vertex -2.67652 -2.97258 20
    endloop
  endfacet
  facet normal 0 0 1
    outer loop
      vertex -8.02957 -8.91774 20
      vertex -2.67652 -2.97258 20
      vertex -3.23607 -2.35114 20
    endloop
  endfacet
  facet normal 0 0 1
    outer loop
      vertex -9.7082 -7.05342 20
      vertex -3.23607 -2.35114 20
      vertex -3.65418 -1.62695 20
    endloop
  endfacet
  facet normal 0 0 1
    outer loop
      vertex -1.23607 -3.80423 20
      vertex -3.7082 -11.4127 20
      vertex -1.25434 -11.9343 20
    endloop
  endfacet
  facet normal 0 0 1
    outer loop
      vertex -10.9625 -4.88084 20
      vertex -3.65418 -1.62695 20
      vertex -3.91259 -0.831646 20
    endloop
  endfacet
  facet normal 0 0 1
    outer loop
      vertex -11.7378 -2.49494 20
      vertex -3.91259 -0.831646 20
      vertex -4 0 20
    endloop
  endfacet
  facet normal -0 0 1
    outer loop
      vertex -10.9625 4.88084 20
      vertex -3.65418 1.62695 20
      vertex -9.7082 7.05342 20
    endloop
  endfacet
  facet normal 0 0 1
    outer loop
      vertex -2 -3.4641 20
      vertex -6 -10.3923 20
      vertex -3.7082 -11.4127 20
    endloop
  endfacet
  facet normal 0 0 1
    outer loop
      vertex -3.65418 1.62695 20
      vertex -10.9625 4.88084 20
      vertex -3.91259 0.831646 20
    endloop
  endfacet
  facet normal 0 0 1
    outer loop
      vertex -2.67652 -2.97258 20
      vertex -8.02957 -8.91774 20
      vertex -6 -10.3923 20
    endloop
  endfacet
  facet normal -0 0 1
    outer loop
      vertex -11.7378 2.49494 20
      vertex -3.91259 0.831646 20
      vertex -10.9625 4.88084 20
    endloop
  endfacet
  facet normal 0 0 1
    outer loop
      vertex -3.23607 -2.35114 20
      vertex -9.7082 -7.05342 20
      vertex -8.02957 -8.91774 20
    endloop
  endfacet
  facet normal 0 0 1
    outer loop
      vertex -3.91259 0.831646 20
      vertex -11.7378 2.49494 20
      vertex -4 0 20
    endloop
  endfacet
  facet normal 0 0 1
    outer loop
      vertex -3.65418 -1.62695 20
      vertex -10.9625 -4.88084 20
      vertex -9.7082 -7.05342 20
    endloop
  endfacet
  facet normal 0 0 1
    outer loop
      vertex -12 0 20
      vertex -4 0 20
      vertex -11.7378 2.49494 20
    endloop
  endfacet
  facet normal 0 0 1
    outer loop
      vertex -3.91259 -0.831646 20
      vertex -11.7378 -2.49494 20
      vertex -10.9625 -4.88084 20
    endloop
  endfacet
  facet normal 0 0 1
    outer loop
      vertex -4 0 20
      vertex -12 0 20
      vertex -11.7378 -2.49494 20
    endloop
  endfacet
  facet normal -0.587783 -0.809019 0
    outer loop
      vertex -8.02957 -8.91774 0
      vertex -6 -10.3923 20
      vertex -8.02957 -8.91774 20
    endloop
  endfacet
  facet normal -0.587783 -0.809019 -0
    outer loop
      vertex -6 -10.3923 20
      vertex -8.02957 -8.91774 0
      vertex -6 -10.3923 0
    endloop
  endfacet
  facet normal 0 1 -0
    outer loop
      vertex 1.25434 11.9343 0
      vertex -1.25434 11.9343 20
      vertex 1.25434 11.9343 20
    endloop
  endfacet
  facet normal 0 1 0
    outer loop
      vertex -1.25434 11.9343 20
      vertex 1.25434 11.9343 0
      vertex -1.25434 11.9343 0
    endloop
  endfacet
  facet normal -0.951048 0.309044 0
    outer loop
      vertex -11.7378 2.49494 0
      vertex -10.9625 4.88084 20
      vertex -10.9625 4.88084 0
    endloop
  endfacet
  facet normal -0.951048 0.309044 0
    outer loop
      vertex -10.9625 4.88084 20
      vertex -11.7378 2.49494 0
      vertex -11.7378 2.49494 20
    endloop
  endfacet
  facet normal 0.406745 -0.913542 0
    outer loop
      vertex 3.7082 -11.4127 0
      vertex 6 -10.3923 20
      vertex 3.7082 -11.4127 20
    endloop
  endfacet
  facet normal 0.406745 -0.913542 0
    outer loop
      vertex 6 -10.3923 20
      vertex 3.7082 -11.4127 0
      vertex 6 -10.3923 0
    endloop
  endfacet
  facet normal 0.587783 0.809019 -0
    outer loop
      vertex 8.02957 8.91774 0
      vertex 6 10.3923 20
      vertex 8.02957 8.91774 20
    endloop
  endfacet
  facet normal 0.587783 0.809019 0
    outer loop
      vertex 6 10.3923 20
      vertex 8.02957 8.91774 0
      vertex 6 10.3923 0
    endloop
  endfacet
  facet normal -0.994523 0.104517 0
    outer loop
      vertex -12 0 0
      vertex -11.7378 2.49494 20
      vertex -11.7378 2.49494 0
    endloop
  endfacet
  facet normal -0.994523 0.104517 0
    outer loop
      vertex -11.7378 2.49494 20
      vertex -12 0 0
      vertex -12 0 20
    endloop
  endfacet
  facet normal -0.207918 0.978146 0
    outer loop
      vertex -1.25434 11.9343 0
      vertex -3.7082 11.4127 20
      vertex -1.25434 11.9343 20
    endloop
  endfacet
  facet normal -0.207918 0.978146 0
    outer loop
      vertex -3.7082 11.4127 20
      vertex -1.25434 11.9343 0
      vertex -3.7082 11.4127 0
    endloop
  endfacet
  facet normal -0.743147 -0.669128 0
    outer loop
      vertex -8.02957 -8.91774 0
      vertex -9.7082 -7.05342 20
      vertex -9.7082 -7.05342 0
    endloop
  endfacet
  facet normal -0.743147 -0.669128 0
    outer loop
      vertex -9.7082 -7.05342 20
      vertex -8.02957 -8.91774 0
      vertex -8.02957 -8.91774 20
    endloop
  endfacet
  facet normal 0 -1 0
    outer loop
      vertex -1.25434 -11.9343 0
      vertex 1.25434 -11.9343 20
      vertex -1.25434 -11.9343 20
    endloop
  endfacet
  facet normal 0 -1 -0
    outer loop
      vertex 1.25434 -11.9343 20
      vertex -1.25434 -11.9343 0
      vertex 1.25434 -11.9343 0
    endloop
  endfacet
  facet normal -0.207918 -0.978146 0
    outer loop
      vertex -3.7082 -11.4127 0
      vertex -1.25434 -11.9343 20
      vertex -3.7082 -11.4127 20
    endloop
  endfacet
  facet normal -0.207918 -0.978146 -0
    outer loop
      vertex -1.25434 -11.9343 20
      vertex -3.7082 -11.4127 0
      vertex -1.25434 -11.9343 0
    endloop
  endfacet
  facet normal -0.406745 -0.913542 0
    outer loop
      vertex -6 -10.3923 0
      vertex -3.7082 -11.4127 20
      vertex -6 -10.3923 20
    endloop
  endfacet
  facet normal -0.406745 -0.913542 -0
    outer loop
      vertex -3.7082 -11.4127 20
      vertex -6 -10.3923 0
      vertex -3.7082 -11.4127 0
    endloop
  endfacet
  facet normal 0.743143 0.669133 0
    outer loop
      vertex -2.67652 -2.97258 20
      vertex -3.23607 -2.35114 0
      vertex -3.23607 -2.35114 20
    endloop
  endfacet
  facet normal 0.743143 0.669133 0
    outer loop
      vertex -3.23607 -2.35114 0
      vertex -2.67652 -2.97258 20
      vertex -2.67652 -2.97258 0
    endloop
  endfacet
  facet normal -0.951056 -0.309017 0
    outer loop
      vertex 3.91259 0.831646 0
      vertex 3.65418 1.62695 20
      vertex 3.65418 1.62695 0
    endloop
  endfacet
  facet normal -0.951056 -0.309017 0
    outer loop
      vertex 3.65418 1.62695 20
      vertex 3.91259 0.831646 0
      vertex 3.91259 0.831646 20
    endloop
  endfacet
  facet normal -0.994522 -0.104529 0
    outer loop
      vertex 4 0 0
      vertex 3.91259 0.831646 20
      vertex 3.91259 0.831646 0
    endloop
  endfacet
  facet normal -0.994522 -0.104529 0
    outer loop
      vertex 3.91259 0.831646 20
      vertex 4 0 0
      vertex 4 0 20
    endloop
  endfacet
  facet normal -0.866026 -0.499999 0
    outer loop
      vertex 3.65418 1.62695 0
      vertex 3.23607 2.35114 20
      vertex 3.23607 2.35114 0
    endloop
  endfacet
  facet normal -0.866026 -0.499999 0
    outer loop
      vertex 3.23607 2.35114 20
      vertex 3.65418 1.62695 0
      vertex 3.65418 1.62695 20
    endloop
  endfacet
  facet normal -0.587785 -0.809017 0
    outer loop
      vertex 2 3.4641 0
      vertex 2.67652 2.97258 20
      vertex 2 3.4641 20
    endloop
  endfacet
  facet normal -0.587785 -0.809017 -0
    outer loop
      vertex 2.67652 2.97258 20
      vertex 2 3.4641 0
      vertex 2.67652 2.97258 0
    endloop
  endfacet
  facet normal -0.587785 0.809017 0
    outer loop
      vertex 2.67652 -2.97258 0
      vertex 2 -3.4641 20
      vertex 2.67652 -2.97258 20
    endloop
  endfacet
  facet normal -0.587785 0.809017 0
    outer loop
      vertex 2 -3.4641 20
      vertex 2.67652 -2.97258 0
      vertex 2 -3.4641 0
    endloop
  endfacet
  facet normal 0.406743 0.913543 -0
    outer loop
      vertex -1.23607 -3.80423 0
      vertex -2 -3.4641 20
      vertex -1.23607 -3.80423 20
    endloop
  endfacet
  facet normal 0.406743 0.913543 0
    outer loop
      vertex -2 -3.4641 20
      vertex -1.23607 -3.80423 0
      vertex -2 -3.4641 0
    endloop
  endfacet
  facet normal -0.994522 0.104529 0
    outer loop
      vertex 3.91259 -0.831646 0
      vertex 4 0 20
      vertex 4 0 0
    endloop
  endfacet
  facet normal -0.994522 0.104529 0
    outer loop
      vertex 4 0 20
      vertex 3.91259 -0.831646 0
      vertex 3.91259 -0.831646 20
    endloop
  endfacet
  facet normal -0.743143 -0.669133 0
    outer loop
      vertex 3.23607 2.35114 0
      vertex 2.67652 2.97258 20
      vertex 2.67652 2.97258 0
    endloop
  endfacet
  facet normal -0.743143 -0.669133 0
    outer loop
      vertex 2.67652 2.97258 20
      vertex 3.23607 2.35114 0
      vertex 3.23607 2.35114 20
    endloop
  endfacet
  facet normal 0.207909 0.978148 -0
    outer loop
      vertex -0.418114 -3.97809 0
      vertex -1.23607 -3.80423 20
      vertex -0.418114 -3.97809 20
    endloop
  endfacet
  facet normal 0.207909 0.978148 0
    outer loop
      vertex -1.23607 -3.80423 20
      vertex -0.418114 -3.97809 0
      vertex -1.23607 -3.80423 0
    endloop
  endfacet
  facet normal 0.207909 -0.978148 0
    outer loop
      vertex -1.23607 3.80423 0
      vertex -0.418114 3.97809 20
      vertex -1.23607 3.80423 20
    endloop
  endfacet
  facet normal 0.207909 -0.978148 0
    outer loop
      vertex -0.418114 3.97809 20
      vertex -1.23607 3.80423 0
      vertex -0.418114 3.97809 0
    endloop
  endfacet
  facet normal 0.743143 -0.669133 0
    outer loop
      vertex -3.23607 2.35114 20
      vertex -2.67652 2.97258 0
      vertex -2.67652 2.97258 20
    endloop
  endfacet
  facet normal 0.743143 -0.669133 0
    outer loop
      vertex -2.67652 2.97258 0
      vertex -3.23607 2.35114 20
      vertex -3.23607 2.35114 0
    endloop
  endfacet
  facet normal 0 -1 0
    outer loop
      vertex -0.418114 3.97809 0
      vertex 0.418114 3.97809 20
      vertex -0.418114 3.97809 20
    endloop
  endfacet
  facet normal 0 -1 -0
    outer loop
      vertex 0.418114 3.97809 20
      vertex -0.418114 3.97809 0
      vertex 0.418114 3.97809 0
    endloop
  endfacet
  facet normal -0.951056 0.309017 0
    outer loop
      vertex 3.65418 -1.62695 0
      vertex 3.91259 -0.831646 20
      vertex 3.91259 -0.831646 0
    endloop
  endfacet
  facet normal -0.951056 0.309017 0
    outer loop
      vertex 3.91259 -0.831646 20
      vertex 3.65418 -1.62695 0
      vertex 3.65418 -1.62695 20
    endloop
  endfacet
  facet normal -0.406743 0.913543 0
    outer loop
      vertex 2 -3.4641 0
      vertex 1.23607 -3.80423 20
      vertex 2 -3.4641 20
    endloop
  endfacet
  facet normal -0.406743 0.913543 0
    outer loop
      vertex 1.23607 -3.80423 20
      vertex 2 -3.4641 0
      vertex 1.23607 -3.80423 0
    endloop
  endfacet
  facet normal 0.587785 0.809017 -0
    outer loop
      vertex -2 -3.4641 0
      vertex -2.67652 -2.97258 20
      vertex -2 -3.4641 20
    endloop
  endfacet
  facet normal 0.587785 0.809017 0
    outer loop
      vertex -2.67652 -2.97258 20
      vertex -2 -3.4641 0
      vertex -2.67652 -2.97258 0
    endloop
  endfacet
  facet normal 0.951056 -0.309017 0
    outer loop
      vertex -3.91259 0.831646 20
      vertex -3.65418 1.62695 0
      vertex -3.65418 1.62695 20
    endloop
  endfacet
  facet normal 0.951056 -0.309017 0
    outer loop
      vertex -3.65418 1.62695 0
      vertex -3.91259 0.831646 20
      vertex -3.91259 0.831646 0
    endloop
  endfacet
  facet normal 0.587785 -0.809017 0
    outer loop
      vertex -2.67652 2.97258 0
      vertex -2 3.4641 20
      vertex -2.67652 2.97258 20
    endloop
  endfacet
  facet normal 0.587785 -0.809017 0
    outer loop
      vertex -2 3.4641 20
      vertex -2.67652 2.97258 0
      vertex -2 3.4641 0
    endloop
  endfacet
  facet normal 0.951056 0.309017 0
    outer loop
      vertex -3.65418 -1.62695 20
      vertex -3.91259 -0.831646 0
      vertex -3.91259 -0.831646 20
    endloop
  endfacet
  facet normal 0.951056 0.309017 0
    outer loop
      vertex -3.91259 -0.831646 0
      vertex -3.65418 -1.62695 20
      vertex -3.65418 -1.62695 0
    endloop
  endfacet
  facet normal 0.406743 -0.913543 0
    outer loop
      vertex -2 3.4641 0
      vertex -1.23607 3.80423 20
      vertex -2 3.4641 20
    endloop
  endfacet
  facet normal 0.406743 -0.913543 0
    outer loop
      vertex -1.23607 3.80423 20
      vertex -2 3.4641 0
      vertex -1.23607 3.80423 0
    endloop
  endfacet
  facet normal -0.207909 0.978148 0
    outer loop
      vertex 1.23607 -3.80423 0
      vertex 0.418114 -3.97809 20
      vertex 1.23607 -3.80423 20
    endloop
  endfacet
  facet normal -0.207909 0.978148 0
    outer loop
      vertex 0.418114 -3.97809 20
      vertex 1.23607 -3.80423 0
      vertex 0.418114 -3.97809 0
    endloop
  endfacet
  facet normal 0.994522 0.104529 0
    outer loop
      vertex -3.91259 -0.831646 20
      vertex -4 0 0
      vertex -4 0 20
    endloop
  endfacet
  facet normal 0.994522 0.104529 0
    outer loop
      vertex -4 0 0
      vertex -3.91259 -0.831646 20
      vertex -3.91259 -0.831646 0
    endloop
  endfacet
  facet normal 0.866026 0.499999 0
    outer loop
      vertex -3.23607 -2.35114 20
      vertex -3.65418 -1.62695 0
      vertex -3.65418 -1.62695 20
    endloop
  endfacet
  facet normal 0.866026 0.499999 0
    outer loop
      vertex -3.65418 -1.62695 0
      vertex -3.23607 -2.35114 20
      vertex -3.23607 -2.35114 0
    endloop
  endfacet
  facet normal 0.866026 -0.499999 0
    outer loop
      vertex -3.65418 1.62695 20
      vertex -3.23607 2.35114 0
      vertex -3.23607 2.35114 20
    endloop
  endfacet
  facet normal 0.866026 -0.499999 0
    outer loop
      vertex -3.23607 2.35114 0
      vertex -3.65418 1.62695 20
      vertex -3.65418 1.62695 0
    endloop
  endfacet
  facet normal -0.866026 0.499999 0
    outer loop
      vertex 3.23607 -2.35114 0
      vertex 3.65418 -1.62695 20
      vertex 3.65418 -1.62695 0
    endloop
  endfacet
  facet normal -0.866026 0.499999 0
    outer loop
      vertex 3.65418 -1.62695 20
      vertex 3.23607 -2.35114 0
      vertex 3.23607 -2.35114 20
    endloop
  endfacet
  facet normal -0.406743 -0.913543 0
    outer loop
      vertex 1.23607 3.80423 0
      vertex 2 3.4641 20
      vertex 1.23607 3.80423 20
    endloop
  endfacet
  facet normal -0.406743 -0.913543 -0
    outer loop
      vertex 2 3.4641 20
      vertex 1.23607 3.80423 0
      vertex 2 3.4641 0
    endloop
  endfacet
  facet normal -0.207909 -0.978148 0
    outer loop
      vertex 0.418114 3.97809 0
      vertex 1.23607 3.80423 20
      vertex 0.418114 3.97809 20
    endloop
  endfacet
  facet normal -0.207909 -0.978148 -0
    outer loop
      vertex 1.23607 3.80423 20
      vertex 0.418114 3.97809 0
      vertex 1.23607 3.80423 0
    endloop
  endfacet
  facet normal -0.743143 0.669133 0
    outer loop
      vertex 2.67652 -2.97258 0
      vertex 3.23607 -2.35114 20
      vertex 3.23607 -2.35114 0
    endloop
  endfacet
  facet normal -0.743143 0.669133 0
    outer loop
      vertex 3.23607 -2.35114 20
      vertex 2.67652 -2.97258 0
      vertex 2.67652 -2.97258 20
    endloop
  endfacet
  facet normal 0 1 -0
    outer loop
      vertex 0.418114 -3.97809 0
      vertex -0.418114 -3.97809 20
      vertex 0.418114 -3.97809 20
    endloop
  endfacet
  facet normal 0 1 0
    outer loop
      vertex -0.418114 -3.97809 20
      vertex 0.418114 -3.97809 0
      vertex -0.418114 -3.97809 0
    endloop
  endfacet
  facet normal 0.994522 -0.104529 0
    outer loop
      vertex -4 0 20
      vertex -3.91259 0.831646 0
      vertex -3.91259 0.831646 20
    endloop
  endfacet
  facet normal 0.994522 -0.104529 0
    outer loop
      vertex -3.91259 0.831646 0
      vertex -4 0 20
      vertex -4 0 0
    endloop
  endfacet
  facet normal 0.822985 0 0.568063
    outer loop
      vertex 8.22909 0 9.07055
      vertex 8.50298 -8.39196 8.67375
      vertex 8.50298 0 8.67375
    endloop
  endfacet
  facet normal 0.822985 0 0.568063
    outer loop
      vertex 8.50298 -8.39196 8.67375
      vertex 8.22909 0 9.07055
      vertex 8.22909 -8.69615 9.07055
    endloop
  endfacet
  facet normal -0.934993 0 -0.354667
    outer loop
      vertex 11.9419 -0.552945 10.4786
      vertex 11.7709 0 10.9294
      vertex 11.9419 0 10.4786
    endloop
  endfacet
  facet normal -0.934993 -0 -0.354667
    outer loop
      vertex 11.7709 0 10.9294
      vertex 11.9419 -0.552945 10.4786
      vertex 11.7709 -2.17963 10.9294
    endloop
  endfacet
  facet normal -0.992712 -0 -0.120511
    outer loop
      vertex 11.9419 0 10.4786
      vertex 12 0 10
      vertex 11.9419 -0.552945 10.4786
    endloop
  endfacet
  facet normal 0.935013 0 -0.354612
    outer loop
      vertex 8.22909 -8.69615 10.9294
      vertex 8.05812 0 10.4786
      vertex 8.22909 0 10.9294
    endloop
  endfacet
  facet normal 0.935013 0 -0.354612
    outer loop
      vertex 8.05812 0 10.4786
      vertex 8.22909 -8.69615 10.9294
      vertex 8.05812 -8.88603 10.4786
    endloop
  endfacet
  facet normal -0.464732 0 0.885451
    outer loop
      vertex 10.7092 0 8.12997
      vertex 11.1361 -4.3466 8.35403
      vertex 11.1361 0 8.35403
    endloop
  endfacet
  facet normal -0.464732 0 0.885451
    outer loop
      vertex 10.7092 -5.31963 8.12997
      vertex 11.1361 -4.3466 8.35403
      vertex 10.7092 0 8.12997
    endloop
  endfacet
  facet normal -0.464899 9.3193e-05 0.885364
    outer loop
      vertex 11.1361 -4.3466 8.35403
      vertex 10.7092 -5.31963 8.12997
      vertex 10.9625 -4.88084 8.26293
    endloop
  endfacet
  facet normal 0 0 -1
    outer loop
      vertex 9.75893 0 11.9854
      vertex 10.2411 -6.13047 11.9854
      vertex 9.75893 -6.96557 11.9854
    endloop
  endfacet
  facet normal 0 0 -1
    outer loop
      vertex 10.2411 -6.13047 11.9854
      vertex 9.75893 0 11.9854
      vertex 10.2411 0 11.9854
    endloop
  endfacet
  facet normal -0.663112 0 0.748521
    outer loop
      vertex 11.1361 0 8.35403
      vertex 11.497 -3.23589 8.67375
      vertex 11.497 0 8.67375
    endloop
  endfacet
  facet normal -0.663112 0 0.748521
    outer loop
      vertex 11.497 -3.23589 8.67375
      vertex 11.1361 0 8.35403
      vertex 11.1361 -4.3466 8.35403
    endloop
  endfacet
  facet normal -0 0 1
    outer loop
      vertex 9.75893 0 8.01458
      vertex 10.2411 -6.13047 8.01458
      vertex 10.2411 0 8.01458
    endloop
  endfacet
  facet normal 0 0 1
    outer loop
      vertex 10.2411 -6.13047 8.01458
      vertex 9.75893 0 8.01458
      vertex 9.75893 -6.96557 8.01458
    endloop
  endfacet
  facet normal 0.464618 0 -0.885511
    outer loop
      vertex 8.86387 0 11.646
      vertex 9.29079 -7.51701 11.87
      vertex 8.86387 -7.99115 11.646
    endloop
  endfacet
  facet normal 0.464618 0 -0.885511
    outer loop
      vertex 9.29079 -7.51701 11.87
      vertex 8.86387 0 11.646
      vertex 9.29079 0 11.87
    endloop
  endfacet
  facet normal 0.464715 0 0.88546
    outer loop
      vertex 8.86387 0 8.35403
      vertex 9.29079 -7.51701 8.12997
      vertex 9.29079 0 8.12997
    endloop
  endfacet
  facet normal 0.464715 0 0.88546
    outer loop
      vertex 9.29079 -7.51701 8.12997
      vertex 8.86387 0 8.35403
      vertex 8.86387 -7.99115 8.35403
    endloop
  endfacet
  facet normal -0.464523 -6.27314e-05 -0.885561
    outer loop
      vertex 10.7092 -5.31963 11.87
      vertex 11.1361 -4.3466 11.646
      vertex 10.9625 -4.88084 11.7371
    endloop
  endfacet
  facet normal -0.464635 0 -0.885502
    outer loop
      vertex 11.1361 -4.3466 11.646
      vertex 10.7092 -5.31963 11.87
      vertex 10.7092 0 11.87
    endloop
  endfacet
  facet normal -0.464635 0 -0.885502
    outer loop
      vertex 11.1361 -4.3466 11.646
      vertex 10.7092 0 11.87
      vertex 11.1361 0 11.646
    endloop
  endfacet
  facet normal 0.663122 0 0.748511
    outer loop
      vertex 8.50298 0 8.67375
      vertex 8.86387 -7.99115 8.35403
      vertex 8.86387 0 8.35403
    endloop
  endfacet
  facet normal 0.663122 0 0.748511
    outer loop
      vertex 8.86387 -7.99115 8.35403
      vertex 8.50298 0 8.67375
      vertex 8.50298 -8.39196 8.67375
    endloop
  endfacet
  facet normal -0.239362 -0 -0.97093
    outer loop
      vertex 10.2411 0 11.9854
      vertex 10.7092 -5.31963 11.87
      vertex 10.2411 -6.13047 11.9854
    endloop
  endfacet
  facet normal -0.239362 0 -0.97093
    outer loop
      vertex 10.7092 -5.31963 11.87
      vertex 10.2411 0 11.9854
      vertex 10.7092 0 11.87
    endloop
  endfacet
  facet normal 0.663215 0 -0.748429
    outer loop
      vertex 8.50298 0 11.3262
      vertex 8.86387 -7.99115 11.646
      vertex 8.50298 -8.39196 11.3262
    endloop
  endfacet
  facet normal 0.663215 0 -0.748429
    outer loop
      vertex 8.86387 -7.99115 11.646
      vertex 8.50298 0 11.3262
      vertex 8.86387 0 11.646
    endloop
  endfacet
  facet normal 0.935019 0 0.354599
    outer loop
      vertex 8.05812 0 9.52137
      vertex 8.22909 -8.69615 9.07055
      vertex 8.22909 0 9.07055
    endloop
  endfacet
  facet normal 0.935019 0 0.354599
    outer loop
      vertex 8.22909 -8.69615 9.07055
      vertex 8.05812 0 9.52137
      vertex 8.05812 -8.88603 9.52137
    endloop
  endfacet
  facet normal 0.992708 0 0.120544
    outer loop
      vertex 8 0 10
      vertex 8.05812 -8.88603 9.52137
      vertex 8.05812 0 9.52137
    endloop
  endfacet
  facet normal 0.992708 1.35807e-07 0.120542
    outer loop
      vertex 8 0 10
      vertex 8.02957 -8.91774 9.75649
      vertex 8.05812 -8.88603 9.52137
    endloop
  endfacet
  facet normal 0.992708 0 0.120547
    outer loop
      vertex 8.02957 -8.91774 9.75649
      vertex 8 0 10
      vertex 8 -8.93922 10
    endloop
  endfacet
  facet normal -0.239342 0 0.970935
    outer loop
      vertex 10.2411 0 8.01458
      vertex 10.7092 -5.31963 8.12997
      vertex 10.7092 0 8.12997
    endloop
  endfacet
  facet normal -0.239342 0 0.970935
    outer loop
      vertex 10.7092 -5.31963 8.12997
      vertex 10.2411 0 8.01458
      vertex 10.2411 -6.13047 8.01458
    endloop
  endfacet
  facet normal -0.822975 0 -0.568077
    outer loop
      vertex 11.7709 -2.17963 10.9294
      vertex 11.497 0 11.3262
      vertex 11.7709 0 10.9294
    endloop
  endfacet
  facet normal -0.822417 -0.000448346 -0.568885
    outer loop
      vertex 11.497 -3.23589 11.3262
      vertex 11.7709 -2.17963 10.9294
      vertex 11.7378 -2.49494 10.9775
    endloop
  endfacet
  facet normal -0.822975 0 -0.568077
    outer loop
      vertex 11.7709 -2.17963 10.9294
      vertex 11.497 -3.23589 11.3262
      vertex 11.497 0 11.3262
    endloop
  endfacet
  facet normal -0.663205 -0 -0.748438
    outer loop
      vertex 11.1361 0 11.646
      vertex 11.497 -3.23589 11.3262
      vertex 11.1361 -4.3466 11.646
    endloop
  endfacet
  facet normal -0.663205 0 -0.748438
    outer loop
      vertex 11.497 -3.23589 11.3262
      vertex 11.1361 0 11.646
      vertex 11.497 0 11.3262
    endloop
  endfacet
  facet normal 0.239323 0 0.97094
    outer loop
      vertex 9.29079 0 8.12997
      vertex 9.75893 -6.96557 8.01458
      vertex 9.75893 0 8.01458
    endloop
  endfacet
  facet normal 0.239323 -0 0.97094
    outer loop
      vertex 9.29079 -7.51701 8.12997
      vertex 9.75893 -6.96557 8.01458
      vertex 9.29079 0 8.12997
    endloop
  endfacet
  facet normal 0.239486 -0.000146518 0.9709
    outer loop
      vertex 9.75893 -6.96557 8.01458
      vertex 9.29079 -7.51701 8.12997
      vertex 9.7082 -7.05342 8.02708
    endloop
  endfacet
  facet normal 0.992707 0 -0.120552
    outer loop
      vertex 8.05812 -8.88603 10.4786
      vertex 8 0 10
      vertex 8.05812 0 10.4786
    endloop
  endfacet
  facet normal 0.992707 -8.4916e-09 -0.120552
    outer loop
      vertex 8.02957 -8.91774 10.2435
      vertex 8 0 10
      vertex 8.05812 -8.88603 10.4786
    endloop
  endfacet
  facet normal 0.992707 0 -0.120552
    outer loop
      vertex 8 0 10
      vertex 8.02957 -8.91774 10.2435
      vertex 8 -8.93922 10
    endloop
  endfacet
  facet normal -0.82137 0 0.570396
    outer loop
      vertex 11.497 0 8.67375
      vertex 11.5 -3.22672 8.67807
      vertex 11.5 0 8.67807
    endloop
  endfacet
  facet normal -0.82137 0 0.570396
    outer loop
      vertex 11.5 -3.22672 8.67807
      vertex 11.497 0 8.67375
      vertex 11.497 -3.23589 8.67375
    endloop
  endfacet
  facet normal 0.822985 0 -0.568063
    outer loop
      vertex 8.50298 -8.39196 11.3262
      vertex 8.22909 0 10.9294
      vertex 8.50298 0 11.3262
    endloop
  endfacet
  facet normal 0.822985 0 -0.568063
    outer loop
      vertex 8.22909 0 10.9294
      vertex 8.50298 -8.39196 11.3262
      vertex 8.22909 -8.69615 10.9294
    endloop
  endfacet
  facet normal 0.239547 -0.000183967 -0.970885
    outer loop
      vertex 9.29079 -7.51701 11.87
      vertex 9.75893 -6.96557 11.9854
      vertex 9.7082 -7.05342 11.9729
    endloop
  endfacet
  facet normal 0.239343 0 -0.970935
    outer loop
      vertex 9.75893 -6.96557 11.9854
      vertex 9.29079 -7.51701 11.87
      vertex 9.29079 0 11.87
    endloop
  endfacet
  facet normal 0.239343 0 -0.970935
    outer loop
      vertex 9.75893 -6.96557 11.9854
      vertex 9.29079 0 11.87
      vertex 9.75893 0 11.9854
    endloop
  endfacet
  facet normal 0 -1 0
    outer loop
      vertex 8.05812 0 9.52137
      vertex 11.5 0 10
      vertex 8 0 10
    endloop
  endfacet
  facet normal 0 -1 0
    outer loop
      vertex 8.22909 0 9.07055
      vertex 11.5 0 10
      vertex 8.05812 0 9.52137
    endloop
  endfacet
  facet normal 0 -1 0
    outer loop
      vertex 8.50298 0 8.67375
      vertex 11.5 0 10
      vertex 8.22909 0 9.07055
    endloop
  endfacet
  facet normal 0 -1 0
    outer loop
      vertex 8.86387 0 8.35403
      vertex 11.5 0 10
      vertex 8.50298 0 8.67375
    endloop
  endfacet
  facet normal 0 -1 0
    outer loop
      vertex 9.29079 0 8.12997
      vertex 11.5 0 10
      vertex 8.86387 0 8.35403
    endloop
  endfacet
  facet normal 0 -1 -0
    outer loop
      vertex 11.5 0 10
      vertex 11.1361 0 8.35403
      vertex 11.5 0 8.67807
    endloop
  endfacet
  facet normal 0 -1 0
    outer loop
      vertex 11.5 0 8.67807
      vertex 11.1361 0 8.35403
      vertex 11.497 0 8.67375
    endloop
  endfacet
  facet normal 0 -1 0
    outer loop
      vertex 9.75893 0 8.01458
      vertex 11.5 0 10
      vertex 9.29079 0 8.12997
    endloop
  endfacet
  facet normal 0 -1 0
    outer loop
      vertex 11.5 0 10
      vertex 10.7092 0 8.12997
      vertex 11.1361 0 8.35403
    endloop
  endfacet
  facet normal 0 -1 0
    outer loop
      vertex 10.2411 0 8.01458
      vertex 11.5 0 10
      vertex 9.75893 0 8.01458
    endloop
  endfacet
  facet normal 0 -1 0
    outer loop
      vertex 11.5 0 10
      vertex 10.2411 0 8.01458
      vertex 10.7092 0 8.12997
    endloop
  endfacet
  facet normal 0 -1 0
    outer loop
      vertex 11.5 0 10
      vertex 9.75893 0 11.9854
      vertex 9.29079 0 11.87
    endloop
  endfacet
  facet normal 0 -1 0
    outer loop
      vertex 9.75893 0 11.9854
      vertex 11.5 0 10
      vertex 10.2411 0 11.9854
    endloop
  endfacet
  facet normal 0 -1 0
    outer loop
      vertex 11.5 0 10
      vertex 9.29079 0 11.87
      vertex 8.86387 0 11.646
    endloop
  endfacet
  facet normal 0 -1 0
    outer loop
      vertex 10.2411 0 11.9854
      vertex 11.5 0 10
      vertex 10.7092 0 11.87
    endloop
  endfacet
  facet normal 0 -1 0
    outer loop
      vertex 11.5 0 10
      vertex 8.86387 0 11.646
      vertex 8.50298 0 11.3262
    endloop
  endfacet
  facet normal 0 -1 0
    outer loop
      vertex 10.7092 0 11.87
      vertex 11.5 0 10
      vertex 11.1361 0 11.646
    endloop
  endfacet
  facet normal 0 -1 0
    outer loop
      vertex 11.5 0 10
      vertex 8.50298 0 11.3262
      vertex 8.22909 0 10.9294
    endloop
  endfacet
  facet normal 0 -1 0
    outer loop
      vertex 11.1361 0 11.646
      vertex 11.5 0 10
      vertex 11.497 0 11.3262
    endloop
  endfacet
  facet normal 0 -1 0
    outer loop
      vertex 11.5 0 10
      vertex 8.22909 0 10.9294
      vertex 8.05812 0 10.4786
    endloop
  endfacet
  facet normal 0 -1 0
    outer loop
      vertex 11.497 0 11.3262
      vertex 11.5 0 10
      vertex 11.7709 0 10.9294
    endloop
  endfacet
  facet normal 0 -1 0
    outer loop
      vertex 11.5 0 10
      vertex 8.05812 0 10.4786
      vertex 8 0 10
    endloop
  endfacet
  facet normal 0 -1 -0
    outer loop
      vertex 11.7709 0 10.9294
      vertex 11.5 0 10
      vertex 11.9419 0 10.4786
    endloop
  endfacet
  facet normal 0 -1 -0
    outer loop
      vertex 11.9419 0 10.4786
      vertex 11.5 0 10
      vertex 12 0 10
    endloop
  endfacet
  facet normal 0 0 -1
    outer loop
      vertex 11.5 0 10
      vertex 11.7378 2.49494 10
      vertex 12 0 10
    endloop
  endfacet
  facet normal -0 0 -1
    outer loop
      vertex 11.7378 2.49494 10
      vertex 11.5 0 10
      vertex 11.5 3.22672 10
    endloop
  endfacet
  facet normal 1 0 0
    outer loop
      vertex 11.5 0 8.67807
      vertex 11.5 3.22672 10
      vertex 11.5 0 10
    endloop
  endfacet
  facet normal 1 0 0
    outer loop
      vertex 11.5 3.22672 10
      vertex 11.5 0 8.67807
      vertex 11.5 3.22672 0
    endloop
  endfacet
  facet normal 1 0 0
    outer loop
      vertex 11.5 -3.22672 0
      vertex 11.5 0 8.67807
      vertex 11.5 -3.22672 8.67807
    endloop
  endfacet
  facet normal 1 0 0
    outer loop
      vertex 11.5 0 8.67807
      vertex 11.5 -3.22672 0
      vertex 11.5 3.22672 0
    endloop
  endfacet
endsolid OpenSCAD_Model
