solid OpenSCAD_Model
  facet normal -0.40673 -0.913548 0
    outer loop
      vertex -25 -43.3013 0
      vertex -15.4508 -47.5528 20
      vertex -25 -43.3013 20
    endloop
  endfacet
  facet normal -0.40673 -0.913548 -0
    outer loop
      vertex -15.4508 -47.5528 20
      vertex -25 -43.3013 0
      vertex -15.4508 -47.5528 0
    endloop
  endfacet
  facet normal -0.951056 -0.309018 0
    outer loop
      vertex -45.6773 -20.3368 0
      vertex -48.9074 -10.3956 20
      vertex -48.9074 -10.3956 0
    endloop
  endfacet
  facet normal -0.951056 -0.309018 0
    outer loop
      vertex -48.9074 -10.3956 20
      vertex -45.6773 -20.3368 0
      vertex -45.6773 -20.3368 20
    endloop
  endfacet
  facet normal 0.951056 0.309018 0
    outer loop
      vertex 48.9074 10.3956 20
      vertex 45.6773 20.3368 0
      vertex 45.6773 20.3368 20
    endloop
  endfacet
  facet normal 0.951056 0.309018 0
    outer loop
      vertex 45.6773 20.3368 0
      vertex 48.9074 10.3956 20
      vertex 48.9074 10.3956 0
    endloop
  endfacet
  facet normal 0.994522 0.104526 0
    outer loop
      vertex 50 0 20
      vertex 48.9074 10.3956 0
      vertex 48.9074 10.3956 20
    endloop
  endfacet
  facet normal 0.994522 0.104526 0
    outer loop
      vertex 48.9074 10.3956 0
      vertex 50 0 20
      vertex 50 0 0
    endloop
  endfacet
  facet normal 0.866028 0.499995 0
    outer loop
      vertex 45.6773 20.3368 20
      vertex 40.4509 29.3893 0
      vertex 40.4509 29.3893 20
    endloop
  endfacet
  facet normal 0.866028 0.499995 0
    outer loop
      vertex 40.4509 29.3893 0
      vertex 45.6773 20.3368 20
      vertex 45.6773 20.3368 0
    endloop
  endfacet
  facet normal 0.587791 -0.809013 0
    outer loop
      vertex 25 -43.3013 0
      vertex 33.4565 -37.1572 20
      vertex 25 -43.3013 20
    endloop
  endfacet
  facet normal 0.587791 -0.809013 0
    outer loop
      vertex 33.4565 -37.1572 20
      vertex 25 -43.3013 0
      vertex 33.4565 -37.1572 0
    endloop
  endfacet
  facet normal 0.40673 0.913548 -0
    outer loop
      vertex 25 43.3013 0
      vertex 15.4508 47.5528 20
      vertex 25 43.3013 20
    endloop
  endfacet
  facet normal 0.40673 0.913548 0
    outer loop
      vertex 15.4508 47.5528 20
      vertex 25 43.3013 0
      vertex 15.4508 47.5528 0
    endloop
  endfacet
  facet normal 0.994522 -0.104526 0
    outer loop
      vertex 48.9074 -10.3956 20
      vertex 50 0 0
      vertex 50 0 20
    endloop
  endfacet
  facet normal 0.994522 -0.104526 0
    outer loop
      vertex 50 0 0
      vertex 48.9074 -10.3956 20
      vertex 48.9074 -10.3956 0
    endloop
  endfacet
  facet normal 0.743138 0.669139 0
    outer loop
      vertex 40.4509 29.3893 20
      vertex 33.4565 37.1572 0
      vertex 33.4565 37.1572 20
    endloop
  endfacet
  facet normal 0.743138 0.669139 0
    outer loop
      vertex 33.4565 37.1572 0
      vertex 40.4509 29.3893 20
      vertex 40.4509 29.3893 0
    endloop
  endfacet
  facet normal -0.866028 0.499995 0
    outer loop
      vertex -45.6773 20.3368 0
      vertex -40.4509 29.3893 20
      vertex -40.4509 29.3893 0
    endloop
  endfacet
  facet normal -0.866028 0.499995 0
    outer loop
      vertex -40.4509 29.3893 20
      vertex -45.6773 20.3368 0
      vertex -45.6773 20.3368 20
    endloop
  endfacet
  facet normal 0.743138 -0.669139 0
    outer loop
      vertex 33.4565 -37.1572 20
      vertex 40.4509 -29.3893 0
      vertex 40.4509 -29.3893 20
    endloop
  endfacet
  facet normal 0.743138 -0.669139 0
    outer loop
      vertex 40.4509 -29.3893 0
      vertex 33.4565 -37.1572 20
      vertex 33.4565 -37.1572 0
    endloop
  endfacet
  facet normal -0.743138 0.669139 0
    outer loop
      vertex -40.4509 29.3893 0
      vertex -33.4565 37.1572 20
      vertex -33.4565 37.1572 0
    endloop
  endfacet
  facet normal -0.743138 0.669139 0
    outer loop
      vertex -33.4565 37.1572 20
      vertex -40.4509 29.3893 0
      vertex -40.4509 29.3893 20
    endloop
  endfacet
  facet normal 0.866028 -0.499995 0
    outer loop
      vertex 40.4509 -29.3893 20
      vertex 45.6773 -20.3368 0
      vertex 45.6773 -20.3368 20
    endloop
  endfacet
  facet normal 0.866028 -0.499995 0
    outer loop
      vertex 45.6773 -20.3368 0
      vertex 40.4509 -29.3893 20
      vertex 40.4509 -29.3893 0
    endloop
  endfacet
  facet normal -0.587791 0.809013 0
    outer loop
      vertex -25 43.3013 0
      vertex -33.4565 37.1572 20
      vertex -25 43.3013 20
    endloop
  endfacet
  facet normal -0.587791 0.809013 0
    outer loop
      vertex -33.4565 37.1572 20
      vertex -25 43.3013 0
      vertex -33.4565 37.1572 0
    endloop
  endfacet
  facet normal 0 0 1
    outer loop
      vertex 5.1 0 20
      vertex 50 0 20
      vertex 48.9074 10.3956 20
    endloop
  endfacet
  facet normal 0 0 1
    outer loop
      vertex 4.98855 1.06035 20
      vertex 48.9074 10.3956 20
      vertex 45.6773 20.3368 20
    endloop
  endfacet
  facet normal 0 0 1
    outer loop
      vertex 50 0 20
      vertex 5.1 0 20
      vertex 48.9074 -10.3956 20
    endloop
  endfacet
  facet normal 0 0 1
    outer loop
      vertex 4.65908 2.07436 20
      vertex 45.6773 20.3368 20
      vertex 40.4509 29.3893 20
    endloop
  endfacet
  facet normal -0 0 1
    outer loop
      vertex 4.98855 -1.06035 20
      vertex 48.9074 -10.3956 20
      vertex 5.1 0 20
    endloop
  endfacet
  facet normal 0 0 1
    outer loop
      vertex 4.12599 2.9977 20
      vertex 40.4509 29.3893 20
      vertex 33.4565 37.1572 20
    endloop
  endfacet
  facet normal 0 0 1
    outer loop
      vertex 48.9074 -10.3956 20
      vertex 4.98855 -1.06035 20
      vertex 45.6773 -20.3368 20
    endloop
  endfacet
  facet normal 0 0 1
    outer loop
      vertex 3.41257 3.79004 20
      vertex 33.4565 37.1572 20
      vertex 25 43.3013 20
    endloop
  endfacet
  facet normal -0 0 1
    outer loop
      vertex 4.65908 -2.07436 20
      vertex 45.6773 -20.3368 20
      vertex 4.98855 -1.06035 20
    endloop
  endfacet
  facet normal 0 0 1
    outer loop
      vertex 2.55 4.41673 20
      vertex 25 43.3013 20
      vertex 15.4508 47.5528 20
    endloop
  endfacet
  facet normal 0 0 1
    outer loop
      vertex 45.6773 -20.3368 20
      vertex 4.65908 -2.07436 20
      vertex 40.4509 -29.3893 20
    endloop
  endfacet
  facet normal 0 0 1
    outer loop
      vertex 1.57599 4.85039 20
      vertex 15.4508 47.5528 20
      vertex 5.22642 49.7261 20
    endloop
  endfacet
  facet normal -0 0 1
    outer loop
      vertex 4.12599 -2.9977 20
      vertex 40.4509 -29.3893 20
      vertex 4.65908 -2.07436 20
    endloop
  endfacet
  facet normal 0 0 1
    outer loop
      vertex 40.4509 -29.3893 20
      vertex 4.12599 -2.9977 20
      vertex 33.4565 -37.1572 20
    endloop
  endfacet
  facet normal 0 0 1
    outer loop
      vertex 48.9074 10.3956 20
      vertex 4.98855 1.06035 20
      vertex 5.1 0 20
    endloop
  endfacet
  facet normal 0 0 1
    outer loop
      vertex 45.6773 20.3368 20
      vertex 4.65908 2.07436 20
      vertex 4.98855 1.06035 20
    endloop
  endfacet
  facet normal 0 0 1
    outer loop
      vertex 40.4509 29.3893 20
      vertex 4.12599 2.9977 20
      vertex 4.65908 2.07436 20
    endloop
  endfacet
  facet normal 0 0 1
    outer loop
      vertex 33.4565 37.1572 20
      vertex 3.41257 3.79004 20
      vertex 4.12599 2.9977 20
    endloop
  endfacet
  facet normal 0 0 1
    outer loop
      vertex 25 43.3013 20
      vertex 2.55 4.41673 20
      vertex 3.41257 3.79004 20
    endloop
  endfacet
  facet normal 0 0 1
    outer loop
      vertex 15.4508 47.5528 20
      vertex 1.57599 4.85039 20
      vertex 2.55 4.41673 20
    endloop
  endfacet
  facet normal 0 0 1
    outer loop
      vertex 5.22642 49.7261 20
      vertex 0.533094 5.07206 20
      vertex 1.57599 4.85039 20
    endloop
  endfacet
  facet normal 0 0 1
    outer loop
      vertex 5.22642 49.7261 20
      vertex -0.533094 5.07206 20
      vertex 0.533094 5.07206 20
    endloop
  endfacet
  facet normal -0 0 1
    outer loop
      vertex -5.22642 49.7261 20
      vertex -0.533094 5.07206 20
      vertex 5.22642 49.7261 20
    endloop
  endfacet
  facet normal 0 0 1
    outer loop
      vertex -0.533094 5.07206 20
      vertex -5.22642 49.7261 20
      vertex -1.57599 4.85039 20
    endloop
  endfacet
  facet normal -0 0 1
    outer loop
      vertex -15.4508 47.5528 20
      vertex -1.57599 4.85039 20
      vertex -5.22642 49.7261 20
    endloop
  endfacet
  facet normal 0 0 1
    outer loop
      vertex -1.57599 4.85039 20
      vertex -15.4508 47.5528 20
      vertex -2.55 4.41673 20
    endloop
  endfacet
  facet normal -0 0 1
    outer loop
      vertex -25 43.3013 20
      vertex -2.55 4.41673 20
      vertex -15.4508 47.5528 20
    endloop
  endfacet
  facet normal 0 0 1
    outer loop
      vertex -2.55 4.41673 20
      vertex -25 43.3013 20
      vertex -3.41257 3.79004 20
    endloop
  endfacet
  facet normal 0 0 1
    outer loop
      vertex -3.41257 3.79004 20
      vertex -33.4565 37.1572 20
      vertex -4.12599 2.9977 20
    endloop
  endfacet
  facet normal -0 0 1
    outer loop
      vertex -33.4565 37.1572 20
      vertex -3.41257 3.79004 20
      vertex -25 43.3013 20
    endloop
  endfacet
  facet normal -0 0 1
    outer loop
      vertex 3.41257 -3.79004 20
      vertex 33.4565 -37.1572 20
      vertex 4.12599 -2.9977 20
    endloop
  endfacet
  facet normal 0 0 1
    outer loop
      vertex 33.4565 -37.1572 20
      vertex 3.41257 -3.79004 20
      vertex 25 -43.3013 20
    endloop
  endfacet
  facet normal -0 0 1
    outer loop
      vertex 2.55 -4.41673 20
      vertex 25 -43.3013 20
      vertex 3.41257 -3.79004 20
    endloop
  endfacet
  facet normal 0 0 1
    outer loop
      vertex 25 -43.3013 20
      vertex 2.55 -4.41673 20
      vertex 15.4508 -47.5528 20
    endloop
  endfacet
  facet normal -0 0 1
    outer loop
      vertex 1.57599 -4.85039 20
      vertex 15.4508 -47.5528 20
      vertex 2.55 -4.41673 20
    endloop
  endfacet
  facet normal 0 0 1
    outer loop
      vertex 15.4508 -47.5528 20
      vertex 1.57599 -4.85039 20
      vertex 5.22642 -49.7261 20
    endloop
  endfacet
  facet normal -0 0 1
    outer loop
      vertex 0.533094 -5.07206 20
      vertex 5.22642 -49.7261 20
      vertex 1.57599 -4.85039 20
    endloop
  endfacet
  facet normal -0 0 1
    outer loop
      vertex -0.533094 -5.07206 20
      vertex 5.22642 -49.7261 20
      vertex 0.533094 -5.07206 20
    endloop
  endfacet
  facet normal 0 0 1
    outer loop
      vertex -5.22642 -49.7261 20
      vertex -0.533094 -5.07206 20
      vertex -1.57599 -4.85039 20
    endloop
  endfacet
  facet normal 0 0 1
    outer loop
      vertex -15.4508 -47.5528 20
      vertex -1.57599 -4.85039 20
      vertex -2.55 -4.41673 20
    endloop
  endfacet
  facet normal 0 0 1
    outer loop
      vertex -25 -43.3013 20
      vertex -2.55 -4.41673 20
      vertex -3.41257 -3.79004 20
    endloop
  endfacet
  facet normal 0 0 1
    outer loop
      vertex -33.4565 -37.1572 20
      vertex -3.41257 -3.79004 20
      vertex -4.12599 -2.9977 20
    endloop
  endfacet
  facet normal 0 0 1
    outer loop
      vertex -40.4509 -29.3893 20
      vertex -4.12599 -2.9977 20
      vertex -4.65908 -2.07436 20
    endloop
  endfacet
  facet normal 0 0 1
    outer loop
      vertex -45.6773 -20.3368 20
      vertex -4.65908 -2.07436 20
      vertex -4.98855 -1.06035 20
    endloop
  endfacet
  facet normal 0 0 1
    outer loop
      vertex -0.533094 -5.07206 20
      vertex -5.22642 -49.7261 20
      vertex 5.22642 -49.7261 20
    endloop
  endfacet
  facet normal 0 0 1
    outer loop
      vertex -48.9074 -10.3956 20
      vertex -4.98855 -1.06035 20
      vertex -5.1 0 20
    endloop
  endfacet
  facet normal -0 0 1
    outer loop
      vertex -40.4509 29.3893 20
      vertex -4.12599 2.9977 20
      vertex -33.4565 37.1572 20
    endloop
  endfacet
  facet normal 0 0 1
    outer loop
      vertex -4.12599 2.9977 20
      vertex -40.4509 29.3893 20
      vertex -4.65908 2.07436 20
    endloop
  endfacet
  facet normal 0 0 1
    outer loop
      vertex -1.57599 -4.85039 20
      vertex -15.4508 -47.5528 20
      vertex -5.22642 -49.7261 20
    endloop
  endfacet
  facet normal -0 0 1
    outer loop
      vertex -45.6773 20.3368 20
      vertex -4.65908 2.07436 20
      vertex -40.4509 29.3893 20
    endloop
  endfacet
  facet normal 0 0 1
    outer loop
      vertex -2.55 -4.41673 20
      vertex -25 -43.3013 20
      vertex -15.4508 -47.5528 20
    endloop
  endfacet
  facet normal 0 0 1
    outer loop
      vertex -4.65908 2.07436 20
      vertex -45.6773 20.3368 20
      vertex -4.98855 1.06035 20
    endloop
  endfacet
  facet normal 0 0 1
    outer loop
      vertex -3.41257 -3.79004 20
      vertex -33.4565 -37.1572 20
      vertex -25 -43.3013 20
    endloop
  endfacet
  facet normal -0 0 1
    outer loop
      vertex -48.9074 10.3956 20
      vertex -4.98855 1.06035 20
      vertex -45.6773 20.3368 20
    endloop
  endfacet
  facet normal 0 0 1
    outer loop
      vertex -4.12599 -2.9977 20
      vertex -40.4509 -29.3893 20
      vertex -33.4565 -37.1572 20
    endloop
  endfacet
  facet normal 0 0 1
    outer loop
      vertex -4.98855 1.06035 20
      vertex -48.9074 10.3956 20
      vertex -5.1 0 20
    endloop
  endfacet
  facet normal 0 0 1
    outer loop
      vertex -4.65908 -2.07436 20
      vertex -45.6773 -20.3368 20
      vertex -40.4509 -29.3893 20
    endloop
  endfacet
  facet normal 0 0 1
    outer loop
      vertex -50 0 20
      vertex -5.1 0 20
      vertex -48.9074 10.3956 20
    endloop
  endfacet
  facet normal 0 0 1
    outer loop
      vertex -4.98855 -1.06035 20
      vertex -48.9074 -10.3956 20
      vertex -45.6773 -20.3368 20
    endloop
  endfacet
  facet normal 0 0 1
    outer loop
      vertex -5.1 0 20
      vertex -50 0 20
      vertex -48.9074 -10.3956 20
    endloop
  endfacet
  facet normal 0.951056 -0.309018 0
    outer loop
      vertex 45.6773 -20.3368 20
      vertex 48.9074 -10.3956 0
      vertex 48.9074 -10.3956 20
    endloop
  endfacet
  facet normal 0.951056 -0.309018 0
    outer loop
      vertex 48.9074 -10.3956 0
      vertex 45.6773 -20.3368 20
      vertex 45.6773 -20.3368 0
    endloop
  endfacet
  facet normal 0 1 -0
    outer loop
      vertex 5.22642 49.7261 0
      vertex -5.22642 49.7261 20
      vertex 5.22642 49.7261 20
    endloop
  endfacet
  facet normal 0 1 0
    outer loop
      vertex -5.22642 49.7261 20
      vertex 5.22642 49.7261 0
      vertex -5.22642 49.7261 0
    endloop
  endfacet
  facet normal -0.587791 -0.809013 0
    outer loop
      vertex -33.4565 -37.1572 0
      vertex -25 -43.3013 20
      vertex -33.4565 -37.1572 20
    endloop
  endfacet
  facet normal -0.587791 -0.809013 -0
    outer loop
      vertex -25 -43.3013 20
      vertex -33.4565 -37.1572 0
      vertex -25 -43.3013 0
    endloop
  endfacet
  facet normal 0 0 -1
    outer loop
      vertex 5.1 0 0
      vertex 50 0 0
      vertex 48.9074 -10.3956 0
    endloop
  endfacet
  facet normal 0 0 -1
    outer loop
      vertex 4.98855 -1.06035 0
      vertex 48.9074 -10.3956 0
      vertex 45.6773 -20.3368 0
    endloop
  endfacet
  facet normal 0 0 -1
    outer loop
      vertex 50 0 0
      vertex 5.1 0 0
      vertex 48.9074 10.3956 0
    endloop
  endfacet
  facet normal 0 0 -1
    outer loop
      vertex 4.65908 -2.07436 0
      vertex 45.6773 -20.3368 0
      vertex 40.4509 -29.3893 0
    endloop
  endfacet
  facet normal 0 0 -1
    outer loop
      vertex 4.98855 1.06035 0
      vertex 48.9074 10.3956 0
      vertex 5.1 0 0
    endloop
  endfacet
  facet normal 0 0 -1
    outer loop
      vertex 4.12599 -2.9977 0
      vertex 40.4509 -29.3893 0
      vertex 33.4565 -37.1572 0
    endloop
  endfacet
  facet normal -0 0 -1
    outer loop
      vertex 48.9074 10.3956 0
      vertex 4.98855 1.06035 0
      vertex 45.6773 20.3368 0
    endloop
  endfacet
  facet normal 0 0 -1
    outer loop
      vertex 3.41257 -3.79004 0
      vertex 33.4565 -37.1572 0
      vertex 25 -43.3013 0
    endloop
  endfacet
  facet normal 0 0 -1
    outer loop
      vertex 4.65908 2.07436 0
      vertex 45.6773 20.3368 0
      vertex 4.98855 1.06035 0
    endloop
  endfacet
  facet normal 0 0 -1
    outer loop
      vertex 2.55 -4.41673 0
      vertex 25 -43.3013 0
      vertex 15.4508 -47.5528 0
    endloop
  endfacet
  facet normal -0 0 -1
    outer loop
      vertex 45.6773 20.3368 0
      vertex 4.65908 2.07436 0
      vertex 40.4509 29.3893 0
    endloop
  endfacet
  facet normal 0 0 -1
    outer loop
      vertex 1.57599 -4.85039 0
      vertex 15.4508 -47.5528 0
      vertex 5.22642 -49.7261 0
    endloop
  endfacet
  facet normal 0 0 -1
    outer loop
      vertex 4.12599 2.9977 0
      vertex 40.4509 29.3893 0
      vertex 4.65908 2.07436 0
    endloop
  endfacet
  facet normal -0 0 -1
    outer loop
      vertex 40.4509 29.3893 0
      vertex 4.12599 2.9977 0
      vertex 33.4565 37.1572 0
    endloop
  endfacet
  facet normal 0 0 -1
    outer loop
      vertex 48.9074 -10.3956 0
      vertex 4.98855 -1.06035 0
      vertex 5.1 0 0
    endloop
  endfacet
  facet normal 0 0 -1
    outer loop
      vertex 45.6773 -20.3368 0
      vertex 4.65908 -2.07436 0
      vertex 4.98855 -1.06035 0
    endloop
  endfacet
  facet normal 0 0 -1
    outer loop
      vertex 40.4509 -29.3893 0
      vertex 4.12599 -2.9977 0
      vertex 4.65908 -2.07436 0
    endloop
  endfacet
  facet normal 0 0 -1
    outer loop
      vertex 33.4565 -37.1572 0
      vertex 3.41257 -3.79004 0
      vertex 4.12599 -2.9977 0
    endloop
  endfacet
  facet normal 0 0 -1
    outer loop
      vertex 25 -43.3013 0
      vertex 2.55 -4.41673 0
      vertex 3.41257 -3.79004 0
    endloop
  endfacet
  facet normal 0 0 -1
    outer loop
      vertex 15.4508 -47.5528 0
      vertex 1.57599 -4.85039 0
      vertex 2.55 -4.41673 0
    endloop
  endfacet
  facet normal 0 0 -1
    outer loop
      vertex 5.22642 -49.7261 0
      vertex 0.533094 -5.07206 0
      vertex 1.57599 -4.85039 0
    endloop
  endfacet
  facet normal 0 0 -1
    outer loop
      vertex 5.22642 -49.7261 0
      vertex -0.533094 -5.07206 0
      vertex 0.533094 -5.07206 0
    endloop
  endfacet
  facet normal 0 0 -1
    outer loop
      vertex -5.22642 -49.7261 0
      vertex -0.533094 -5.07206 0
      vertex 5.22642 -49.7261 0
    endloop
  endfacet
  facet normal -0 0 -1
    outer loop
      vertex -0.533094 -5.07206 0
      vertex -5.22642 -49.7261 0
      vertex -1.57599 -4.85039 0
    endloop
  endfacet
  facet normal 0 0 -1
    outer loop
      vertex -15.4508 -47.5528 0
      vertex -1.57599 -4.85039 0
      vertex -5.22642 -49.7261 0
    endloop
  endfacet
  facet normal -0 0 -1
    outer loop
      vertex -1.57599 -4.85039 0
      vertex -15.4508 -47.5528 0
      vertex -2.55 -4.41673 0
    endloop
  endfacet
  facet normal 0 0 -1
    outer loop
      vertex -25 -43.3013 0
      vertex -2.55 -4.41673 0
      vertex -15.4508 -47.5528 0
    endloop
  endfacet
  facet normal -0 0 -1
    outer loop
      vertex -2.55 -4.41673 0
      vertex -25 -43.3013 0
      vertex -3.41257 -3.79004 0
    endloop
  endfacet
  facet normal -0 0 -1
    outer loop
      vertex -3.41257 -3.79004 0
      vertex -33.4565 -37.1572 0
      vertex -4.12599 -2.9977 0
    endloop
  endfacet
  facet normal 0 0 -1
    outer loop
      vertex -33.4565 -37.1572 0
      vertex -3.41257 -3.79004 0
      vertex -25 -43.3013 0
    endloop
  endfacet
  facet normal 0 0 -1
    outer loop
      vertex 3.41257 3.79004 0
      vertex 33.4565 37.1572 0
      vertex 4.12599 2.9977 0
    endloop
  endfacet
  facet normal -0 0 -1
    outer loop
      vertex 33.4565 37.1572 0
      vertex 3.41257 3.79004 0
      vertex 25 43.3013 0
    endloop
  endfacet
  facet normal 0 0 -1
    outer loop
      vertex 2.55 4.41673 0
      vertex 25 43.3013 0
      vertex 3.41257 3.79004 0
    endloop
  endfacet
  facet normal -0 0 -1
    outer loop
      vertex 25 43.3013 0
      vertex 2.55 4.41673 0
      vertex 15.4508 47.5528 0
    endloop
  endfacet
  facet normal 0 0 -1
    outer loop
      vertex 1.57599 4.85039 0
      vertex 15.4508 47.5528 0
      vertex 2.55 4.41673 0
    endloop
  endfacet
  facet normal -0 0 -1
    outer loop
      vertex 15.4508 47.5528 0
      vertex 1.57599 4.85039 0
      vertex 5.22642 49.7261 0
    endloop
  endfacet
  facet normal 0 0 -1
    outer loop
      vertex 0.533094 5.07206 0
      vertex 5.22642 49.7261 0
      vertex 1.57599 4.85039 0
    endloop
  endfacet
  facet normal 0 0 -1
    outer loop
      vertex -0.533094 5.07206 0
      vertex 5.22642 49.7261 0
      vertex 0.533094 5.07206 0
    endloop
  endfacet
  facet normal 0 0 -1
    outer loop
      vertex -5.22642 49.7261 0
      vertex -0.533094 5.07206 0
      vertex -1.57599 4.85039 0
    endloop
  endfacet
  facet normal 0 0 -1
    outer loop
      vertex -15.4508 47.5528 0
      vertex -1.57599 4.85039 0
      vertex -2.55 4.41673 0
    endloop
  endfacet
  facet normal 0 0 -1
    outer loop
      vertex -25 43.3013 0
      vertex -2.55 4.41673 0
      vertex -3.41257 3.79004 0
    endloop
  endfacet
  facet normal 0 0 -1
    outer loop
      vertex -33.4565 37.1572 0
      vertex -3.41257 3.79004 0
      vertex -4.12599 2.9977 0
    endloop
  endfacet
  facet normal 0 0 -1
    outer loop
      vertex -40.4509 29.3893 0
      vertex -4.12599 2.9977 0
      vertex -4.65908 2.07436 0
    endloop
  endfacet
  facet normal 0 0 -1
    outer loop
      vertex -45.6773 20.3368 0
      vertex -4.65908 2.07436 0
      vertex -4.98855 1.06035 0
    endloop
  endfacet
  facet normal 0 0 -1
    outer loop
      vertex -0.533094 5.07206 0
      vertex -5.22642 49.7261 0
      vertex 5.22642 49.7261 0
    endloop
  endfacet
  facet normal 0 0 -1
    outer loop
      vertex -48.9074 10.3956 0
      vertex -4.98855 1.06035 0
      vertex -5.1 0 0
    endloop
  endfacet
  facet normal 0 0 -1
    outer loop
      vertex -40.4509 -29.3893 0
      vertex -4.12599 -2.9977 0
      vertex -33.4565 -37.1572 0
    endloop
  endfacet
  facet normal -0 0 -1
    outer loop
      vertex -4.12599 -2.9977 0
      vertex -40.4509 -29.3893 0
      vertex -4.65908 -2.07436 0
    endloop
  endfacet
  facet normal 0 0 -1
    outer loop
      vertex -1.57599 4.85039 0
      vertex -15.4508 47.5528 0
      vertex -5.22642 49.7261 0
    endloop
  endfacet
  facet normal 0 0 -1
    outer loop
      vertex -45.6773 -20.3368 0
      vertex -4.65908 -2.07436 0
      vertex -40.4509 -29.3893 0
    endloop
  endfacet
  facet normal 0 0 -1
    outer loop
      vertex -2.55 4.41673 0
      vertex -25 43.3013 0
      vertex -15.4508 47.5528 0
    endloop
  endfacet
  facet normal -0 0 -1
    outer loop
      vertex -4.65908 -2.07436 0
      vertex -45.6773 -20.3368 0
      vertex -4.98855 -1.06035 0
    endloop
  endfacet
  facet normal 0 0 -1
    outer loop
      vertex -3.41257 3.79004 0
      vertex -33.4565 37.1572 0
      vertex -25 43.3013 0
    endloop
  endfacet
  facet normal 0 0 -1
    outer loop
      vertex -48.9074 -10.3956 0
      vertex -4.98855 -1.06035 0
      vertex -45.6773 -20.3368 0
    endloop
  endfacet
  facet normal 0 0 -1
    outer loop
      vertex -4.12599 2.9977 0
      vertex -40.4509 29.3893 0
      vertex -33.4565 37.1572 0
    endloop
  endfacet
  facet normal -0 0 -1
    outer loop
      vertex -4.98855 -1.06035 0
      vertex -48.9074 -10.3956 0
      vertex -5.1 0 0
    endloop
  endfacet
  facet normal 0 0 -1
    outer loop
      vertex -4.65908 2.07436 0
      vertex -45.6773 20.3368 0
      vertex -40.4509 29.3893 0
    endloop
  endfacet
  facet normal 0 0 -1
    outer loop
      vertex -50 0 0
      vertex -5.1 0 0
      vertex -48.9074 -10.3956 0
    endloop
  endfacet
  facet normal 0 0 -1
    outer loop
      vertex -4.98855 1.06035 0
      vertex -48.9074 10.3956 0
      vertex -45.6773 20.3368 0
    endloop
  endfacet
  facet normal 0 0 -1
    outer loop
      vertex -5.1 0 0
      vertex -50 0 0
      vertex -48.9074 10.3956 0
    endloop
  endfacet
  facet normal -0.40673 0.913548 0
    outer loop
      vertex -15.4508 47.5528 0
      vertex -25 43.3013 20
      vertex -15.4508 47.5528 20
    endloop
  endfacet
  facet normal -0.40673 0.913548 0
    outer loop
      vertex -25 43.3013 20
      vertex -15.4508 47.5528 0
      vertex -25 43.3013 0
    endloop
  endfacet
  facet normal -0.994522 -0.104526 0
    outer loop
      vertex -48.9074 -10.3956 0
      vertex -50 0 20
      vertex -50 0 0
    endloop
  endfacet
  facet normal -0.994522 -0.104526 0
    outer loop
      vertex -50 0 20
      vertex -48.9074 -10.3956 0
      vertex -48.9074 -10.3956 20
    endloop
  endfacet
  facet normal -0.743138 -0.669139 0
    outer loop
      vertex -33.4565 -37.1572 0
      vertex -40.4509 -29.3893 20
      vertex -40.4509 -29.3893 0
    endloop
  endfacet
  facet normal -0.743138 -0.669139 0
    outer loop
      vertex -40.4509 -29.3893 20
      vertex -33.4565 -37.1572 0
      vertex -33.4565 -37.1572 20
    endloop
  endfacet
  facet normal -0.866028 -0.499995 0
    outer loop
      vertex -40.4509 -29.3893 0
      vertex -45.6773 -20.3368 20
      vertex -45.6773 -20.3368 0
    endloop
  endfacet
  facet normal -0.866028 -0.499995 0
    outer loop
      vertex -45.6773 -20.3368 20
      vertex -40.4509 -29.3893 0
      vertex -40.4509 -29.3893 20
    endloop
  endfacet
  facet normal 0.207915 -0.978147 0
    outer loop
      vertex 5.22642 -49.7261 0
      vertex 15.4508 -47.5528 20
      vertex 5.22642 -49.7261 20
    endloop
  endfacet
  facet normal 0.207915 -0.978147 0
    outer loop
      vertex 15.4508 -47.5528 20
      vertex 5.22642 -49.7261 0
      vertex 15.4508 -47.5528 0
    endloop
  endfacet
  facet normal -0.994522 0.104526 0
    outer loop
      vertex -50 0 0
      vertex -48.9074 10.3956 20
      vertex -48.9074 10.3956 0
    endloop
  endfacet
  facet normal -0.994522 0.104526 0
    outer loop
      vertex -48.9074 10.3956 20
      vertex -50 0 0
      vertex -50 0 20
    endloop
  endfacet
  facet normal 0.207915 0.978147 -0
    outer loop
      vertex 15.4508 47.5528 0
      vertex 5.22642 49.7261 20
      vertex 15.4508 47.5528 20
    endloop
  endfacet
  facet normal 0.207915 0.978147 0
    outer loop
      vertex 5.22642 49.7261 20
      vertex 15.4508 47.5528 0
      vertex 5.22642 49.7261 0
    endloop
  endfacet
  facet normal 0.587791 0.809013 -0
    outer loop
      vertex 33.4565 37.1572 0
      vertex 25 43.3013 20
      vertex 33.4565 37.1572 20
    endloop
  endfacet
  facet normal 0.587791 0.809013 0
    outer loop
      vertex 25 43.3013 20
      vertex 33.4565 37.1572 0
      vertex 25 43.3013 0
    endloop
  endfacet
  facet normal -0.207915 0.978147 0
    outer loop
      vertex -5.22642 49.7261 0
      vertex -15.4508 47.5528 20
      vertex -5.22642 49.7261 20
    endloop
  endfacet
  facet normal -0.207915 0.978147 0
    outer loop
      vertex -15.4508 47.5528 20
      vertex -5.22642 49.7261 0
      vertex -15.4508 47.5528 0
    endloop
  endfacet
  facet normal 0.40673 -0.913548 0
    outer loop
      vertex 15.4508 -47.5528 0
      vertex 25 -43.3013 20
      vertex 15.4508 -47.5528 20
    endloop
  endfacet
  facet normal 0.40673 -0.913548 0
    outer loop
      vertex 25 -43.3013 20
      vertex 15.4508 -47.5528 0
      vertex 25 -43.3013 0
    endloop
  endfacet
  facet normal 0 -1 0
    outer loop
      vertex -5.22642 -49.7261 0
      vertex 5.22642 -49.7261 20
      vertex -5.22642 -49.7261 20
    endloop
  endfacet
  facet normal 0 -1 -0
    outer loop
      vertex 5.22642 -49.7261 20
      vertex -5.22642 -49.7261 0
      vertex 5.22642 -49.7261 0
    endloop
  endfacet
  facet normal -0.207915 -0.978147 0
    outer loop
      vertex -15.4508 -47.5528 0
      vertex -5.22642 -49.7261 20
      vertex -15.4508 -47.5528 20
    endloop
  endfacet
  facet normal -0.207915 -0.978147 -0
    outer loop
      vertex -5.22642 -49.7261 20
      vertex -15.4508 -47.5528 0
      vertex -5.22642 -49.7261 0
    endloop
  endfacet
  facet normal -0.951056 0.309018 0
    outer loop
      vertex -48.9074 10.3956 0
      vertex -45.6773 20.3368 20
      vertex -45.6773 20.3368 0
    endloop
  endfacet
  facet normal -0.951056 0.309018 0
    outer loop
      vertex -45.6773 20.3368 20
      vertex -48.9074 10.3956 0
      vertex -48.9074 10.3956 20
    endloop
  endfacet
  facet normal -0.951057 -0.309015 0
    outer loop
      vertex 4.98855 1.06035 0
      vertex 4.65908 2.07436 20
      vertex 4.65908 2.07436 0
    endloop
  endfacet
  facet normal -0.951057 -0.309015 0
    outer loop
      vertex 4.65908 2.07436 20
      vertex 4.98855 1.06035 0
      vertex 4.98855 1.06035 20
    endloop
  endfacet
  facet normal -0.994522 -0.104531 0
    outer loop
      vertex 5.1 0 0
      vertex 4.98855 1.06035 20
      vertex 4.98855 1.06035 0
    endloop
  endfacet
  facet normal -0.994522 -0.104531 0
    outer loop
      vertex 4.98855 1.06035 20
      vertex 5.1 0 0
      vertex 5.1 0 20
    endloop
  endfacet
  facet normal -0.866026 -0.5 0
    outer loop
      vertex 4.65908 2.07436 0
      vertex 4.12599 2.9977 20
      vertex 4.12599 2.9977 0
    endloop
  endfacet
  facet normal -0.866026 -0.5 0
    outer loop
      vertex 4.12599 2.9977 20
      vertex 4.65908 2.07436 0
      vertex 4.65908 2.07436 20
    endloop
  endfacet
  facet normal -0.743148 -0.669127 0
    outer loop
      vertex 4.12599 2.9977 0
      vertex 3.41257 3.79004 20
      vertex 3.41257 3.79004 0
    endloop
  endfacet
  facet normal -0.743148 -0.669127 0
    outer loop
      vertex 3.41257 3.79004 20
      vertex 4.12599 2.9977 0
      vertex 4.12599 2.9977 20
    endloop
  endfacet
  facet normal -0.207908 0.978148 0
    outer loop
      vertex 1.57599 -4.85039 0
      vertex 0.533094 -5.07206 20
      vertex 1.57599 -4.85039 20
    endloop
  endfacet
  facet normal -0.207908 0.978148 0
    outer loop
      vertex 0.533094 -5.07206 20
      vertex 1.57599 -4.85039 0
      vertex 0.533094 -5.07206 0
    endloop
  endfacet
  facet normal 0.994522 0.104531 0
    outer loop
      vertex -4.98855 -1.06035 20
      vertex -5.1 0 0
      vertex -5.1 0 20
    endloop
  endfacet
  facet normal 0.994522 0.104531 0
    outer loop
      vertex -5.1 0 0
      vertex -4.98855 -1.06035 20
      vertex -4.98855 -1.06035 0
    endloop
  endfacet
  facet normal 0.587783 -0.809019 0
    outer loop
      vertex -3.41257 3.79004 0
      vertex -2.55 4.41673 20
      vertex -3.41257 3.79004 20
    endloop
  endfacet
  facet normal 0.587783 -0.809019 0
    outer loop
      vertex -2.55 4.41673 20
      vertex -3.41257 3.79004 0
      vertex -2.55 4.41673 0
    endloop
  endfacet
  facet normal -0.866026 0.5 0
    outer loop
      vertex 4.12599 -2.9977 0
      vertex 4.65908 -2.07436 20
      vertex 4.65908 -2.07436 0
    endloop
  endfacet
  facet normal -0.866026 0.5 0
    outer loop
      vertex 4.65908 -2.07436 20
      vertex 4.12599 -2.9977 0
      vertex 4.12599 -2.9977 20
    endloop
  endfacet
  facet normal -0.743148 0.669127 0
    outer loop
      vertex 3.41257 -3.79004 0
      vertex 4.12599 -2.9977 20
      vertex 4.12599 -2.9977 0
    endloop
  endfacet
  facet normal -0.743148 0.669127 0
    outer loop
      vertex 4.12599 -2.9977 20
      vertex 3.41257 -3.79004 0
      vertex 3.41257 -3.79004 20
    endloop
  endfacet
  facet normal 0.743148 0.669127 0
    outer loop
      vertex -3.41257 -3.79004 20
      vertex -4.12599 -2.9977 0
      vertex -4.12599 -2.9977 20
    endloop
  endfacet
  facet normal 0.743148 0.669127 0
    outer loop
      vertex -4.12599 -2.9977 0
      vertex -3.41257 -3.79004 20
      vertex -3.41257 -3.79004 0
    endloop
  endfacet
  facet normal 0.207908 0.978148 -0
    outer loop
      vertex -0.533094 -5.07206 0
      vertex -1.57599 -4.85039 20
      vertex -0.533094 -5.07206 20
    endloop
  endfacet
  facet normal 0.207908 0.978148 0
    outer loop
      vertex -1.57599 -4.85039 20
      vertex -0.533094 -5.07206 0
      vertex -1.57599 -4.85039 0
    endloop
  endfacet
  facet normal 0.406739 -0.913544 0
    outer loop
      vertex -2.55 4.41673 0
      vertex -1.57599 4.85039 20
      vertex -2.55 4.41673 20
    endloop
  endfacet
  facet normal 0.406739 -0.913544 0
    outer loop
      vertex -1.57599 4.85039 20
      vertex -2.55 4.41673 0
      vertex -1.57599 4.85039 0
    endloop
  endfacet
  facet normal -0.587783 0.809019 0
    outer loop
      vertex 3.41257 -3.79004 0
      vertex 2.55 -4.41673 20
      vertex 3.41257 -3.79004 20
    endloop
  endfacet
  facet normal -0.587783 0.809019 0
    outer loop
      vertex 2.55 -4.41673 20
      vertex 3.41257 -3.79004 0
      vertex 2.55 -4.41673 0
    endloop
  endfacet
  facet normal 0.866026 -0.5 0
    outer loop
      vertex -4.65908 2.07436 20
      vertex -4.12599 2.9977 0
      vertex -4.12599 2.9977 20
    endloop
  endfacet
  facet normal 0.866026 -0.5 0
    outer loop
      vertex -4.12599 2.9977 0
      vertex -4.65908 2.07436 20
      vertex -4.65908 2.07436 0
    endloop
  endfacet
  facet normal -0.994522 0.104531 0
    outer loop
      vertex 4.98855 -1.06035 0
      vertex 5.1 0 20
      vertex 5.1 0 0
    endloop
  endfacet
  facet normal -0.994522 0.104531 0
    outer loop
      vertex 5.1 0 20
      vertex 4.98855 -1.06035 0
      vertex 4.98855 -1.06035 20
    endloop
  endfacet
  facet normal -0.406739 -0.913544 0
    outer loop
      vertex 1.57599 4.85039 0
      vertex 2.55 4.41673 20
      vertex 1.57599 4.85039 20
    endloop
  endfacet
  facet normal -0.406739 -0.913544 -0
    outer loop
      vertex 2.55 4.41673 20
      vertex 1.57599 4.85039 0
      vertex 2.55 4.41673 0
    endloop
  endfacet
  facet normal -0.951057 0.309015 0
    outer loop
      vertex 4.65908 -2.07436 0
      vertex 4.98855 -1.06035 20
      vertex 4.98855 -1.06035 0
    endloop
  endfacet
  facet normal -0.951057 0.309015 0
    outer loop
      vertex 4.98855 -1.06035 20
      vertex 4.65908 -2.07436 0
      vertex 4.65908 -2.07436 20
    endloop
  endfacet
  facet normal 0.743148 -0.669127 0
    outer loop
      vertex -4.12599 2.9977 20
      vertex -3.41257 3.79004 0
      vertex -3.41257 3.79004 20
    endloop
  endfacet
  facet normal 0.743148 -0.669127 0
    outer loop
      vertex -3.41257 3.79004 0
      vertex -4.12599 2.9977 20
      vertex -4.12599 2.9977 0
    endloop
  endfacet
  facet normal 0.951057 -0.309015 0
    outer loop
      vertex -4.98855 1.06035 20
      vertex -4.65908 2.07436 0
      vertex -4.65908 2.07436 20
    endloop
  endfacet
  facet normal 0.951057 -0.309015 0
    outer loop
      vertex -4.65908 2.07436 0
      vertex -4.98855 1.06035 20
      vertex -4.98855 1.06035 0
    endloop
  endfacet
  facet normal 0.406739 0.913544 -0
    outer loop
      vertex -1.57599 -4.85039 0
      vertex -2.55 -4.41673 20
      vertex -1.57599 -4.85039 20
    endloop
  endfacet
  facet normal 0.406739 0.913544 0
    outer loop
      vertex -2.55 -4.41673 20
      vertex -1.57599 -4.85039 0
      vertex -2.55 -4.41673 0
    endloop
  endfacet
  facet normal 0.994522 -0.104531 0
    outer loop
      vertex -5.1 0 20
      vertex -4.98855 1.06035 0
      vertex -4.98855 1.06035 20
    endloop
  endfacet
  facet normal 0.994522 -0.104531 0
    outer loop
      vertex -4.98855 1.06035 0
      vertex -5.1 0 20
      vertex -5.1 0 0
    endloop
  endfacet
  facet normal 0 -1 0
    outer loop
      vertex -0.533094 5.07206 0
      vertex 0.533094 5.07206 20
      vertex -0.533094 5.07206 20
    endloop
  endfacet
  facet normal 0 -1 -0
    outer loop
      vertex 0.533094 5.07206 20
      vertex -0.533094 5.07206 0
      vertex 0.533094 5.07206 0
    endloop
  endfacet
  facet normal -0.587783 -0.809019 0
    outer loop
      vertex 2.55 4.41673 0
      vertex 3.41257 3.79004 20
      vertex 2.55 4.41673 20
    endloop
  endfacet
  facet normal -0.587783 -0.809019 -0
    outer loop
      vertex 3.41257 3.79004 20
      vertex 2.55 4.41673 0
      vertex 3.41257 3.79004 0
    endloop
  endfacet
  facet normal 0.207908 -0.978148 0
    outer loop
      vertex -1.57599 4.85039 0
      vertex -0.533094 5.07206 20
      vertex -1.57599 4.85039 20
    endloop
  endfacet
  facet normal 0.207908 -0.978148 0
    outer loop
      vertex -0.533094 5.07206 20
      vertex -1.57599 4.85039 0
      vertex -0.533094 5.07206 0
    endloop
  endfacet
  facet normal -0.207908 -0.978148 0
    outer loop
      vertex 0.533094 5.07206 0
      vertex 1.57599 4.85039 20
      vertex 0.533094 5.07206 20
    endloop
  endfacet
  facet normal -0.207908 -0.978148 -0
    outer loop
      vertex 1.57599 4.85039 20
      vertex 0.533094 5.07206 0
      vertex 1.57599 4.85039 0
    endloop
  endfacet
  facet normal 0 1 -0
    outer loop
      vertex 0.533094 -5.07206 0
      vertex -0.533094 -5.07206 20
      vertex 0.533094 -5.07206 20
    endloop
  endfacet
  facet normal 0 1 0
    outer loop
      vertex -0.533094 -5.07206 20
      vertex 0.533094 -5.07206 0
      vertex -0.533094 -5.07206 0
    endloop
  endfacet
  facet normal 0.587783 0.809019 -0
    outer loop
      vertex -2.55 -4.41673 0
      vertex -3.41257 -3.79004 20
      vertex -2.55 -4.41673 20
    endloop
  endfacet
  facet normal 0.587783 0.809019 0
    outer loop
      vertex -3.41257 -3.79004 20
      vertex -2.55 -4.41673 0
      vertex -3.41257 -3.79004 0
    endloop
  endfacet
  facet normal 0.951057 0.309015 0
    outer loop
      vertex -4.65908 -2.07436 20
      vertex -4.98855 -1.06035 0
      vertex -4.98855 -1.06035 20
    endloop
  endfacet
  facet normal 0.951057 0.309015 0
    outer loop
      vertex -4.98855 -1.06035 0
      vertex -4.65908 -2.07436 20
      vertex -4.65908 -2.07436 0
    endloop
  endfacet
  facet normal 0.866026 0.5 0
    outer loop
      vertex -4.12599 -2.9977 20
      vertex -4.65908 -2.07436 0
      vertex -4.65908 -2.07436 20
    endloop
  endfacet
  facet normal 0.866026 0.5 0
    outer loop
      vertex -4.65908 -2.07436 0
      vertex -4.12599 -2.9977 20
      vertex -4.12599 -2.9977 0
    endloop
  endfacet
  facet normal -0.406739 0.913544 0
    outer loop
      vertex 2.55 -4.41673 0
      vertex 1.57599 -4.85039 20
      vertex 2.55 -4.41673 20
    endloop
  endfacet
  facet normal -0.406739 0.913544 0
    outer loop
      vertex 1.57599 -4.85039 20
      vertex 2.55 -4.41673 0
      vertex 1.57599 -4.85039 0
    endloop
  endfacet
endsolid OpenSCAD_Model
