solid OpenSCAD_Model
  facet normal 1 0 0
    outer loop
      vertex 10 20 36.2511
      vertex 10 40 57
      vertex 10 20 55.7489
    endloop
  endfacet
  facet normal 1 -0 0
    outer loop
      vertex 10 0 57
      vertex 10 20 55.7489
      vertex 10 40 57
    endloop
  endfacet
  facet normal 1 0 0
    outer loop
      vertex 10 8 55.7489
      vertex 10 0 57
      vertex 10 8 36.2511
    endloop
  endfacet
  facet normal 1 0 0
    outer loop
      vertex 10 20 55.7489
      vertex 10 0 57
      vertex 10 8 55.7489
    endloop
  endfacet
  facet normal 1 0 0
    outer loop
      vertex 10 40 57
      vertex 10 20 36.2511
      vertex 10 40 6
    endloop
  endfacet
  facet normal 1 0 0
    outer loop
      vertex 10 0 6
      vertex 10 20 36.2511
      vertex 10 8 36.2511
    endloop
  endfacet
  facet normal 1 0 0
    outer loop
      vertex 10 20 36.2511
      vertex 10 0 6
      vertex 10 40 6
    endloop
  endfacet
  facet normal 1 0 0
    outer loop
      vertex 10 0 6
      vertex 10 8 36.2511
      vertex 10 0 57
    endloop
  endfacet
  facet normal -0 0 1
    outer loop
      vertex 0 40 57
      vertex 10 0 57
      vertex 10 40 57
    endloop
  endfacet
  facet normal 0 0 1
    outer loop
      vertex 10 0 57
      vertex 0 40 57
      vertex 0 0 57
    endloop
  endfacet
  facet normal 0 0 -1
    outer loop
      vertex 0 0 0
      vertex 100 40 0
      vertex 100 0 0
    endloop
  endfacet
  facet normal -0 0 -1
    outer loop
      vertex 100 40 0
      vertex 0 0 0
      vertex 0 40 0
    endloop
  endfacet
  facet normal -1 0 0
    outer loop
      vertex 0 40 0
      vertex 0 20 36.2511
      vertex 0 40 57
    endloop
  endfacet
  facet normal -1 0 0
    outer loop
      vertex 0 0 0
      vertex 0 20 36.2511
      vertex 0 40 0
    endloop
  endfacet
  facet normal -1 0 0
    outer loop
      vertex 0 0 57
      vertex 0 8 36.2511
      vertex 0 0 0
    endloop
  endfacet
  facet normal -1 -0 0
    outer loop
      vertex 0 20 36.2511
      vertex 0 0 0
      vertex 0 8 36.2511
    endloop
  endfacet
  facet normal -1 0 0
    outer loop
      vertex 0 20 55.7489
      vertex 0 40 57
      vertex 0 20 36.2511
    endloop
  endfacet
  facet normal -1 0 0
    outer loop
      vertex 0 0 57
      vertex 0 20 55.7489
      vertex 0 8 55.7489
    endloop
  endfacet
  facet normal -1 0 0
    outer loop
      vertex 0 20 55.7489
      vertex 0 0 57
      vertex 0 40 57
    endloop
  endfacet
  facet normal -1 0 0
    outer loop
      vertex 0 8 36.2511
      vertex 0 0 57
      vertex 0 8 55.7489
    endloop
  endfacet
  facet normal 0 1 0
    outer loop
      vertex 100 40 57
      vertex 90 40 6
      vertex 90 40 57
    endloop
  endfacet
  facet normal 0 1 0
    outer loop
      vertex 90 40 6
      vertex 100 40 0
      vertex 10 40 6
    endloop
  endfacet
  facet normal 0 1 -0
    outer loop
      vertex 100 40 0
      vertex 90 40 6
      vertex 100 40 57
    endloop
  endfacet
  facet normal 0 1 -0
    outer loop
      vertex 10 40 6
      vertex 0 40 57
      vertex 10 40 57
    endloop
  endfacet
  facet normal 0 1 0
    outer loop
      vertex 10 40 6
      vertex 0 40 0
      vertex 0 40 57
    endloop
  endfacet
  facet normal 0 1 0
    outer loop
      vertex 0 40 0
      vertex 10 40 6
      vertex 100 40 0
    endloop
  endfacet
  facet normal 0 -1 0
    outer loop
      vertex 0 0 57
      vertex 10 0 6
      vertex 10 0 57
    endloop
  endfacet
  facet normal 0 -1 -0
    outer loop
      vertex 10 0 6
      vertex 0 0 0
      vertex 90 0 6
    endloop
  endfacet
  facet normal 0 -1 0
    outer loop
      vertex 0 0 0
      vertex 10 0 6
      vertex 0 0 57
    endloop
  endfacet
  facet normal 0 -1 0
    outer loop
      vertex 90 0 6
      vertex 100 0 57
      vertex 90 0 57
    endloop
  endfacet
  facet normal 0 -1 0
    outer loop
      vertex 90 0 6
      vertex 100 0 0
      vertex 100 0 57
    endloop
  endfacet
  facet normal 0 -1 0
    outer loop
      vertex 100 0 0
      vertex 90 0 6
      vertex 0 0 0
    endloop
  endfacet
  facet normal 0.207903 0 0.978149
    outer loop
      vertex 1.60081 20 35.5384
      vertex 3.85019 8 35.0603
      vertex 3.85019 20 35.0603
    endloop
  endfacet
  facet normal 0.207903 0 0.978149
    outer loop
      vertex 3.85019 8 35.0603
      vertex 1.60081 20 35.5384
      vertex 1.60081 8 35.5384
    endloop
  endfacet
  facet normal -0.207903 0 -0.978149
    outer loop
      vertex 6.14981 8 56.9397
      vertex 8.39919 20 56.4616
      vertex 8.39919 8 56.4616
    endloop
  endfacet
  facet normal -0.207903 0 -0.978149
    outer loop
      vertex 8.39919 20 56.4616
      vertex 6.14981 8 56.9397
      vertex 6.14981 20 56.9397
    endloop
  endfacet
  facet normal 0.207903 0 -0.978149
    outer loop
      vertex 1.60081 8 56.4616
      vertex 3.85019 20 56.9397
      vertex 3.85019 8 56.9397
    endloop
  endfacet
  facet normal 0.207903 0 -0.978149
    outer loop
      vertex 3.85019 20 56.9397
      vertex 1.60081 8 56.4616
      vertex 1.60081 20 56.4616
    endloop
  endfacet
  facet normal 0.406724 0 0.913551
    outer loop
      vertex 0 20 36.2511
      vertex 1.60081 8 35.5384
      vertex 1.60081 20 35.5384
    endloop
  endfacet
  facet normal 0.406724 0 0.913551
    outer loop
      vertex 1.60081 8 35.5384
      vertex 0 20 36.2511
      vertex 0 8 36.2511
    endloop
  endfacet
  facet normal -0.406724 0 -0.913551
    outer loop
      vertex 8.39919 8 56.4616
      vertex 10 20 55.7489
      vertex 10 8 55.7489
    endloop
  endfacet
  facet normal -0.406724 0 -0.913551
    outer loop
      vertex 10 20 55.7489
      vertex 8.39919 8 56.4616
      vertex 8.39919 20 56.4616
    endloop
  endfacet
  facet normal 0 0 -1
    outer loop
      vertex 3.85019 8 56.9397
      vertex 6.14981 20 56.9397
      vertex 6.14981 8 56.9397
    endloop
  endfacet
  facet normal -0 0 -1
    outer loop
      vertex 6.14981 20 56.9397
      vertex 3.85019 8 56.9397
      vertex 3.85019 20 56.9397
    endloop
  endfacet
  facet normal 0.406724 0 -0.913551
    outer loop
      vertex 0 8 55.7489
      vertex 1.60081 20 56.4616
      vertex 1.60081 8 56.4616
    endloop
  endfacet
  facet normal 0.406724 0 -0.913551
    outer loop
      vertex 1.60081 20 56.4616
      vertex 0 8 55.7489
      vertex 0 20 55.7489
    endloop
  endfacet
  facet normal -0 0 1
    outer loop
      vertex 3.85019 20 35.0603
      vertex 6.14981 8 35.0603
      vertex 6.14981 20 35.0603
    endloop
  endfacet
  facet normal 0 0 1
    outer loop
      vertex 6.14981 8 35.0603
      vertex 3.85019 20 35.0603
      vertex 3.85019 8 35.0603
    endloop
  endfacet
  facet normal -0.207903 0 0.978149
    outer loop
      vertex 6.14981 20 35.0603
      vertex 8.39919 8 35.5384
      vertex 8.39919 20 35.5384
    endloop
  endfacet
  facet normal -0.207903 0 0.978149
    outer loop
      vertex 8.39919 8 35.5384
      vertex 6.14981 20 35.0603
      vertex 6.14981 8 35.0603
    endloop
  endfacet
  facet normal -0.406724 0 0.913551
    outer loop
      vertex 8.39919 20 35.5384
      vertex 10 8 36.2511
      vertex 10 20 36.2511
    endloop
  endfacet
  facet normal -0.406724 0 0.913551
    outer loop
      vertex 10 8 36.2511
      vertex 8.39919 20 35.5384
      vertex 8.39919 8 35.5384
    endloop
  endfacet
  facet normal 0 1 0
    outer loop
      vertex 10 8 55.7489
      vertex 6.14981 8 56.9397
      vertex 8.39919 8 56.4616
    endloop
  endfacet
  facet normal 0 1 0
    outer loop
      vertex 6.14981 8 56.9397
      vertex 10 8 55.7489
      vertex 3.85019 8 56.9397
    endloop
  endfacet
  facet normal 0 1 0
    outer loop
      vertex 0 8 55.7489
      vertex 3.85019 8 56.9397
      vertex 10 8 55.7489
    endloop
  endfacet
  facet normal 0 1 0
    outer loop
      vertex 3.85019 8 56.9397
      vertex 0 8 55.7489
      vertex 1.60081 8 56.4616
    endloop
  endfacet
  facet normal 0 1 -0
    outer loop
      vertex 10 8 36.2511
      vertex 0 8 55.7489
      vertex 10 8 55.7489
    endloop
  endfacet
  facet normal 0 1 0
    outer loop
      vertex 10 8 36.2511
      vertex 0 8 36.2511
      vertex 0 8 55.7489
    endloop
  endfacet
  facet normal 0 1 0
    outer loop
      vertex 6.14981 8 35.0603
      vertex 10 8 36.2511
      vertex 8.39919 8 35.5384
    endloop
  endfacet
  facet normal 0 1 0
    outer loop
      vertex 10 8 36.2511
      vertex 6.14981 8 35.0603
      vertex 0 8 36.2511
    endloop
  endfacet
  facet normal 0 1 -0
    outer loop
      vertex 3.85019 8 35.0603
      vertex 0 8 36.2511
      vertex 6.14981 8 35.0603
    endloop
  endfacet
  facet normal 0 1 0
    outer loop
      vertex 0 8 36.2511
      vertex 3.85019 8 35.0603
      vertex 1.60081 8 35.5384
    endloop
  endfacet
  facet normal 0 -1 0
    outer loop
      vertex 0 20 55.7489
      vertex 3.85019 20 56.9397
      vertex 1.60081 20 56.4616
    endloop
  endfacet
  facet normal 0 -1 -0
    outer loop
      vertex 3.85019 20 56.9397
      vertex 0 20 55.7489
      vertex 6.14981 20 56.9397
    endloop
  endfacet
  facet normal 0 -1 0
    outer loop
      vertex 10 20 55.7489
      vertex 6.14981 20 56.9397
      vertex 0 20 55.7489
    endloop
  endfacet
  facet normal 0 -1 0
    outer loop
      vertex 6.14981 20 56.9397
      vertex 10 20 55.7489
      vertex 8.39919 20 56.4616
    endloop
  endfacet
  facet normal 0 -1 0
    outer loop
      vertex 0 20 36.2511
      vertex 10 20 55.7489
      vertex 0 20 55.7489
    endloop
  endfacet
  facet normal 0 -1 0
    outer loop
      vertex 0 20 36.2511
      vertex 10 20 36.2511
      vertex 10 20 55.7489
    endloop
  endfacet
  facet normal 0 -1 0
    outer loop
      vertex 3.85019 20 35.0603
      vertex 0 20 36.2511
      vertex 1.60081 20 35.5384
    endloop
  endfacet
  facet normal 0 -1 0
    outer loop
      vertex 0 20 36.2511
      vertex 3.85019 20 35.0603
      vertex 10 20 36.2511
    endloop
  endfacet
  facet normal 0 -1 0
    outer loop
      vertex 6.14981 20 35.0603
      vertex 10 20 36.2511
      vertex 3.85019 20 35.0603
    endloop
  endfacet
  facet normal 0 -1 0
    outer loop
      vertex 10 20 36.2511
      vertex 6.14981 20 35.0603
      vertex 8.39919 20 35.5384
    endloop
  endfacet
  facet normal 1 0 0
    outer loop
      vertex 100 20 36.2511
      vertex 100 40 57
      vertex 100 20 55.7489
    endloop
  endfacet
  facet normal 1 -0 0
    outer loop
      vertex 100 0 57
      vertex 100 20 55.7489
      vertex 100 40 57
    endloop
  endfacet
  facet normal 1 0 0
    outer loop
      vertex 100 8 55.7489
      vertex 100 0 57
      vertex 100 8 36.2511
    endloop
  endfacet
  facet normal 1 0 0
    outer loop
      vertex 100 20 55.7489
      vertex 100 0 57
      vertex 100 8 55.7489
    endloop
  endfacet
  facet normal 1 0 0
    outer loop
      vertex 100 40 57
      vertex 100 20 36.2511
      vertex 100 40 0
    endloop
  endfacet
  facet normal 1 0 0
    outer loop
      vertex 100 0 0
      vertex 100 20 36.2511
      vertex 100 8 36.2511
    endloop
  endfacet
  facet normal 1 0 0
    outer loop
      vertex 100 20 36.2511
      vertex 100 0 0
      vertex 100 40 0
    endloop
  endfacet
  facet normal 1 0 0
    outer loop
      vertex 100 0 0
      vertex 100 8 36.2511
      vertex 100 0 57
    endloop
  endfacet
  facet normal -0 0 1
    outer loop
      vertex 90 40 57
      vertex 100 0 57
      vertex 100 40 57
    endloop
  endfacet
  facet normal 0 0 1
    outer loop
      vertex 100 0 57
      vertex 90 40 57
      vertex 90 0 57
    endloop
  endfacet
  facet normal -1 0 0
    outer loop
      vertex 90 40 6
      vertex 90 20 36.2511
      vertex 90 40 57
    endloop
  endfacet
  facet normal -1 0 0
    outer loop
      vertex 90 0 6
      vertex 90 20 36.2511
      vertex 90 40 6
    endloop
  endfacet
  facet normal -1 0 0
    outer loop
      vertex 90 0 57
      vertex 90 8 36.2511
      vertex 90 0 6
    endloop
  endfacet
  facet normal -1 -0 0
    outer loop
      vertex 90 20 36.2511
      vertex 90 0 6
      vertex 90 8 36.2511
    endloop
  endfacet
  facet normal -1 0 0
    outer loop
      vertex 90 20 55.7489
      vertex 90 40 57
      vertex 90 20 36.2511
    endloop
  endfacet
  facet normal -1 0 0
    outer loop
      vertex 90 0 57
      vertex 90 20 55.7489
      vertex 90 8 55.7489
    endloop
  endfacet
  facet normal -1 0 0
    outer loop
      vertex 90 20 55.7489
      vertex 90 0 57
      vertex 90 40 57
    endloop
  endfacet
  facet normal -1 0 0
    outer loop
      vertex 90 8 36.2511
      vertex 90 0 57
      vertex 90 8 55.7489
    endloop
  endfacet
  facet normal 0.207901 0 0.97815
    outer loop
      vertex 91.6008 20 35.5384
      vertex 93.8502 8 35.0603
      vertex 93.8502 20 35.0603
    endloop
  endfacet
  facet normal 0.207901 0 0.97815
    outer loop
      vertex 93.8502 8 35.0603
      vertex 91.6008 20 35.5384
      vertex 91.6008 8 35.5384
    endloop
  endfacet
  facet normal -0.207901 0 -0.97815
    outer loop
      vertex 96.1498 8 56.9397
      vertex 98.3992 20 56.4616
      vertex 98.3992 8 56.4616
    endloop
  endfacet
  facet normal -0.207901 0 -0.97815
    outer loop
      vertex 98.3992 20 56.4616
      vertex 96.1498 8 56.9397
      vertex 96.1498 20 56.9397
    endloop
  endfacet
  facet normal 0.207901 0 -0.97815
    outer loop
      vertex 91.6008 8 56.4616
      vertex 93.8502 20 56.9397
      vertex 93.8502 8 56.9397
    endloop
  endfacet
  facet normal 0.207901 0 -0.97815
    outer loop
      vertex 93.8502 20 56.9397
      vertex 91.6008 8 56.4616
      vertex 91.6008 20 56.4616
    endloop
  endfacet
  facet normal 0.406726 0 0.91355
    outer loop
      vertex 90 20 36.2511
      vertex 91.6008 8 35.5384
      vertex 91.6008 20 35.5384
    endloop
  endfacet
  facet normal 0.406726 0 0.91355
    outer loop
      vertex 91.6008 8 35.5384
      vertex 90 20 36.2511
      vertex 90 8 36.2511
    endloop
  endfacet
  facet normal -0.406726 0 -0.91355
    outer loop
      vertex 98.3992 8 56.4616
      vertex 100 20 55.7489
      vertex 100 8 55.7489
    endloop
  endfacet
  facet normal -0.406726 0 -0.91355
    outer loop
      vertex 100 20 55.7489
      vertex 98.3992 8 56.4616
      vertex 98.3992 20 56.4616
    endloop
  endfacet
  facet normal 0 0 -1
    outer loop
      vertex 93.8502 8 56.9397
      vertex 96.1498 20 56.9397
      vertex 96.1498 8 56.9397
    endloop
  endfacet
  facet normal -0 0 -1
    outer loop
      vertex 96.1498 20 56.9397
      vertex 93.8502 8 56.9397
      vertex 93.8502 20 56.9397
    endloop
  endfacet
  facet normal 0.406726 0 -0.91355
    outer loop
      vertex 90 8 55.7489
      vertex 91.6008 20 56.4616
      vertex 91.6008 8 56.4616
    endloop
  endfacet
  facet normal 0.406726 0 -0.91355
    outer loop
      vertex 91.6008 20 56.4616
      vertex 90 8 55.7489
      vertex 90 20 55.7489
    endloop
  endfacet
  facet normal -0 0 1
    outer loop
      vertex 93.8502 20 35.0603
      vertex 96.1498 8 35.0603
      vertex 96.1498 20 35.0603
    endloop
  endfacet
  facet normal 0 0 1
    outer loop
      vertex 96.1498 8 35.0603
      vertex 93.8502 20 35.0603
      vertex 93.8502 8 35.0603
    endloop
  endfacet
  facet normal -0.207901 0 0.97815
    outer loop
      vertex 96.1498 20 35.0603
      vertex 98.3992 8 35.5384
      vertex 98.3992 20 35.5384
    endloop
  endfacet
  facet normal -0.207901 0 0.97815
    outer loop
      vertex 98.3992 8 35.5384
      vertex 96.1498 20 35.0603
      vertex 96.1498 8 35.0603
    endloop
  endfacet
  facet normal -0.406726 0 0.91355
    outer loop
      vertex 98.3992 20 35.5384
      vertex 100 8 36.2511
      vertex 100 20 36.2511
    endloop
  endfacet
  facet normal -0.406726 0 0.91355
    outer loop
      vertex 100 8 36.2511
      vertex 98.3992 20 35.5384
      vertex 98.3992 8 35.5384
    endloop
  endfacet
  facet normal 0 1 0
    outer loop
      vertex 100 8 55.7489
      vertex 96.1498 8 56.9397
      vertex 98.3992 8 56.4616
    endloop
  endfacet
  facet normal 0 1 0
    outer loop
      vertex 96.1498 8 56.9397
      vertex 100 8 55.7489
      vertex 93.8502 8 56.9397
    endloop
  endfacet
  facet normal 0 1 0
    outer loop
      vertex 90 8 55.7489
      vertex 93.8502 8 56.9397
      vertex 100 8 55.7489
    endloop
  endfacet
  facet normal 0 1 0
    outer loop
      vertex 93.8502 8 56.9397
      vertex 90 8 55.7489
      vertex 91.6008 8 56.4616
    endloop
  endfacet
  facet normal 0 1 -0
    outer loop
      vertex 100 8 36.2511
      vertex 90 8 55.7489
      vertex 100 8 55.7489
    endloop
  endfacet
  facet normal 0 1 0
    outer loop
      vertex 100 8 36.2511
      vertex 90 8 36.2511
      vertex 90 8 55.7489
    endloop
  endfacet
  facet normal 0 1 0
    outer loop
      vertex 96.1498 8 35.0603
      vertex 100 8 36.2511
      vertex 98.3992 8 35.5384
    endloop
  endfacet
  facet normal 0 1 0
    outer loop
      vertex 100 8 36.2511
      vertex 96.1498 8 35.0603
      vertex 90 8 36.2511
    endloop
  endfacet
  facet normal 0 1 -0
    outer loop
      vertex 93.8502 8 35.0603
      vertex 90 8 36.2511
      vertex 96.1498 8 35.0603
    endloop
  endfacet
  facet normal 0 1 0
    outer loop
      vertex 90 8 36.2511
      vertex 93.8502 8 35.0603
      vertex 91.6008 8 35.5384
    endloop
  endfacet
  facet normal 0 -1 0
    outer loop
      vertex 90 20 55.7489
      vertex 93.8502 20 56.9397
      vertex 91.6008 20 56.4616
    endloop
  endfacet
  facet normal 0 -1 -0
    outer loop
      vertex 93.8502 20 56.9397
      vertex 90 20 55.7489
      vertex 96.1498 20 56.9397
    endloop
  endfacet
  facet normal 0 -1 0
    outer loop
      vertex 100 20 55.7489
      vertex 96.1498 20 56.9397
      vertex 90 20 55.7489
    endloop
  endfacet
  facet normal 0 -1 0
    outer loop
      vertex 96.1498 20 56.9397
      vertex 100 20 55.7489
      vertex 98.3992 20 56.4616
    endloop
  endfacet
  facet normal 0 -1 0
    outer loop
      vertex 90 20 36.2511
      vertex 100 20 55.7489
      vertex 90 20 55.7489
    endloop
  endfacet
  facet normal 0 -1 0
    outer loop
      vertex 90 20 36.2511
      vertex 100 20 36.2511
      vertex 100 20 55.7489
    endloop
  endfacet
  facet normal 0 -1 0
    outer loop
      vertex 93.8502 20 35.0603
      vertex 90 20 36.2511
      vertex 91.6008 20 35.5384
    endloop
  endfacet
  facet normal 0 -1 0
    outer loop
      vertex 90 20 36.2511
      vertex 93.8502 20 35.0603
      vertex 100 20 36.2511
    endloop
  endfacet
  facet normal 0 -1 0
    outer loop
      vertex 96.1498 20 35.0603
      vertex 100 20 36.2511
      vertex 93.8502 20 35.0603
    endloop
  endfacet
  facet normal 0 -1 0
    outer loop
      vertex 100 20 36.2511
      vertex 96.1498 20 35.0603
      vertex 98.3992 20 35.5384
    endloop
  endfacet
  facet normal -0 0 1
    outer loop
      vertex 10 40 6
      vertex 90 0 6
      vertex 90 40 6
    endloop
  endfacet
  facet normal 0 0 1
    outer loop
      vertex 90 0 6
      vertex 10 40 6
      vertex 10 0 6
    endloop
  endfacet
endsolid OpenSCAD_Model
